<svg xmlns="http://www.w3.org/2000/svg" viewBox="0 0 558.33 389.2">
    <defs>
		<style>
			.cls-1{
				fill:#3eb5f1;
				stroke:#201600;
				stroke-miterlimit:10;
			}
		</style>
    </defs>
    <title>Ukraine</title>
    <g class="region" id="Rovno">
        <polyline class="cls-1"
                  points="137.25 45 135.75 46.25 135 48.75 133.5 49.5 133 52.5 133.25 54 135 55.25 135 57.75 133.75 59.5 133.5 61.67 133.67 63.67 133.67 65.67 135.67 66 137.83 66 139.75 66.33 140.33 67.25 140.92 68.25 141.42 69.58 141.67 70.92 142.67 72 143.75 72.42 144.92 73.25 146 74.67 146.67 76 145.83 76.67 144.33 77.17 143.67 78.67 143 80 144.83 80.17 146.33 80.5 146.67 82.42 146.5 84.33 144.17 85 144.13 87.19 144.19 88.88 143.13 90.25 141.94 90.75 140.88 91.5 139.75 92.13 139.88 93.69 140.06 95.13 139.63 96.38 139.31 97.31 138.94 98.13 137.63 98 136.38 97.19 134.38 96.94 133.56 96.63 132.44 96 131.25 95.56 129.69 95.81 127.81 95.94 126.25 95.81 125.63 97.13 125.25 98.5 124.17 99.17 123.25 100.17 122.75 100.92 121.42 100.5 120.25 100.42 119.67 101.33 119.5 102.33 118.67 102.33 118.58 103.17 118.25 104 117.75 105.33 118.42 106.17 119 106.42 119.25 107.17 119.42 108.5 119.33 109.5 118.5 110 117.17 109.92 116.67 110.5 116.25 111.83 116.75 112.33 118.25 113.06 119.19 112.75 119.75 112.69 120.25 113.5 120 113.94 119.63 114.25 118.81 115.88 119.13 117.69 119.13 116.94 119.13 118.94 119.13 120.44 119.75 121.19 120.44 121.75 120.44 122.56 121 123.06 121.5 123.5 122.69 123.5 123.63 123.5 124.56 123.5 125.5 123.5 125.5 122.94 125.94 122.56 126.25 122 126.25 120.31 126.75 118.5 128.38 118.69 129.69 119.31 131.75 119.31 133.19 119 135.19 118.63 137.33 119 138.67 116 140.67 115 145.33 115.33 148.67 116 149.33 119 152.33 117 156.67 115 159 112.67 161 110 164.17 107.67 167.67 105.33 170 105.33 172 102.67 175 102.67 176.67 100.67 177.33 98 177.67 95.33 178 93.33 178.33 90 178 86.67 178.33 84.33 181.33 81 183 77 184.67 72.33 185 70.67 187.67 67 191 64.67 191 62 191 59.33 189.33 58 186.33 57 184 59.33 180.67 59.33 180.67 56.67 179.33 54.33 178 54.33 178 51.33 176 51.33 171.33 51.33 167.67 50 164 48.33 158.67 48.33 157 46.33 153 46.33 150.67 44.67 148 43 144.33 42.17 142 41.33 137.33 43"/>
    </g>
    <g class="region" id="Lutsk">
        <polyline class="cls-1"
                  points="135.75 46.25 135 48.75 133.5 49.5 133.16 51.53 133 52.5 133.15 53.39 133.25 54 133.7 54.32 134.38 54.81 135 55.25 135 55.76 135 57.75 133.97 59.19 133.54 61.31 133.67 63.92 133.67 65.67 135.67 66 137.83 66 139.75 66.33 140.92 68.25 141.67 70.92 142.67 72 143.41 72.28 144.58 73.01 146 74.67 146.67 76 145.83 76.67 144.71 77.04 143.67 78.67 143 80 144.42 80.13 145.9 80.4 146.39 80.81 146.58 81.94 146.59 83.25 146.5 84.33 145.92 84.5 144.86 84.8 144.17 85 144.16 85.56 144.13 86.67 144.14 87.58 144.16 88.23 144.19 88.88 143.93 89.21 143.48 89.79 143.13 90.25 141.94 90.75 141.23 91.25 140.37 91.78 139.75 92.13 139.79 92.62 140 93.44 140 94.62 139.78 95.93 139.39 97.09 138.94 98.13 137.63 98 136.38 97.19 134.68 96.98 132.9 96.26 131.25 95.56 128.82 95.87 126.25 95.81 125.25 98.5 124.17 99.17 122.75 100.92 120.25 100.42 119.67 101.33 119.5 102.33 118.67 102.33 118.58 103.17 117.75 105.33 119 106.42 119.25 107.17 119.34 107.87 119.33 109.5 116.67 110.5 115.06 109.63 113.5 109.19 112.5 109.31 111.44 109.31 110.5 108.75 109.25 109 108.63 109.38 107.56 109.63 106.94 108.38 106.13 107.75 105.31 106.94 104.94 105.75 104 104.94 102.88 105.13 101.13 105.44 100.19 104.94 99.94 103.56 100.38 102.44 100.69 101.56 101.38 100.69 101.06 99.44 99.75 99.44 99.19 98 98.38 97.25 97.69 96.13 96.63 96.44 95.31 97.25 94.44 97.25 92.81 95.75 91.75 94.75 90.75 93.38 89.81 91.81 88.81 90.19 87.75 89.13 87.5 88 87.75 87.25 88.13 86.13 89.63 86.13 91.5 85.38 90 83.38 88.63 80.88 87.13 78.38 86.5 75.5 86 72.75 85.25 70.88 84.5 69.25 83 67.5 81.63 65.88 80.63 64 81.13 62.75 81.63 61 81.75 58.63 81.13 56.13 79.88 54.5 79.88 51.75 81.5 50.5 83.75 49.63 86.63 50.38 88.25 51.13 90.5 52.38 93.25 52.38 94.88 50.75 96.5 49.25 98.25 47.88 100.5 46.25 100.5 45.13 101.5 42.13 103.25 41.33 108.13 41.33 113.63 41.33 117.88 41.33 120.88 41.33 124.88 39.88 127.88 39.88 129.88 41.33 132.25 41.33 137.38 42.13 137.38 42.56 137.25 43.28 137.25 43.97 137.22 44.78"/>
    </g>
    <g class="region" id="Lviv">
        <path class="cls-1"
              d="M91.38,94.23v2.52l-.32,2.38-.75,1.25-1.68,1.81L87,104.5v.88l-1.06-.32-2.06-.18-2.19.5-1.81-.32-1.13.32L78,106.5l-.75,1.44-1.06,1.19-2,2.12-1.19.81-1.69,1.32-1.75.81-1.62,1.37-1.75,1.69-2.38,2.44-1.43,1.44-.38,1-2,2.09-2.33,2.08-1.92,2.17-1.92,2.5-2.66,2.33-2.42,3-2,1.83-.69.61v1.75l.32.56.37.88L47,143l.31.69.38.87.69,1.07-.13,1.06-.06,1.25-.25,1.56.25.69-.31,1.19-.94.93-.88,1.32v.75l.75.43.5.44h.38l.69.88.31.75.31.75.56.81.75.62-.43,1.88-.13,1.31-.25.91-.17.59-.08.29-.08.29.08,1,.17,1.33H50l.5.67.42.5.58.75,1,.92,1.17-.42,1.5.42.91.33.17,1.17.17.58.58.83.42.42,1,.42,1.25.41,1,.58h1.58l.83,1.25.75.67h1.75l1,.92,1.09-.67-.34-2.58.84-1.42-.5-1.25-.17-1.08.42-1.42.8-1.67,1-1.25.83-1.66,1.34-1.34.41-1.33.67-.75.75-.5,1,.33,1.42.09.58.41h1.17l1.5-.33.83-.67,1.17.17,1.25.42,1.75.08,1.66-.33,2.5-.17,1.42-.75,1,.08,2.17-.08,1.58-.08.42-1.25-.59-1.34-1.08-.25-.75-1.25.33-1.75.75-1.25.5-1.25.42-1.08-.67-.83-.33-.67.92-.83.5-1.5.83-1.84s1.58.59,2,.34,1.75.33,2,.33,2.58.67,2.58.67l1.34-.84.83-1.5,1.5-.66h1.25l1.25-.67,1.25-1,1-1.17.75-.75v-1.66h2.67l.41-1.34.34-1.33v-1l1.08-.5.33-.5h4.34l.91-1.42,1.92-.41,1-.75.58-1.5v-2.92s.75-1.92.67-1.67-.92-.49-.92-.49H121.5l-.5-.44-.56-.5v-.81l-1-.93-.32-.38v-2.75l-.21-1.18-.11-.63.46-.93.55-.86.43-.59-.5-.81-1.5.37-1.13-.55-.87-.68.21-.68.21-.65-1-.57-.87-.39-1.26-.35-.6.07-1.46,0-.94-.56-1.25.25-.62.38-1.07.25-.39-.78-.69-.83-.85-.77-.45-.75-.51-1-.67-.58-1.29.21-1.17.21-.64,0-.71-.38-.25-1.38.44-1.12.53-1.16.47-.59-.32-1.25H99.75l-.47-1.2-.45-.57-.67-.78-.47-.76-1.28.44-1.1.68h-.87l-.78-.72-.85-.78-.65-.61Z"/>
    </g>
    <g class="region" id="Uzhhorod">
        <path class="cls-1"
              d="M48.92,163.42l-.92-.5-.58-.84-1.36-.66H43.42l-1-.84-1.25-.75-.67.5v1.84s-.83,1.33-1.25,1.25-1.42,1.66-1.42,1.66l-1.16.84-.92,1.58-1.08.42v2.83l-1.42.67v2.5l-.58,1.66-.34,1-.58,1-1.08.92H29.58l-1.25.33-1.25.84-.33,1.91-.5,1.25v1.75l.33,1H27l.67.84h1.5l-.09,1.25,1.09.83.33,1.08.42,1.75.33.91.5,1,.92.59h1.66l1.75.77.75.81.34,1.42.41,2,.75,1.58.67.5h1.42l1.16-.5,1.42-.08.67.58.25,1.17.83,1,.75,1.5.56,1.16.44.75h2.42l1.16-.83.67-.83.58-1.09,1.09-.91.83-.59,1.08.17L55,203l1.17,1,.91,1.17,1,.83.84.5,1.16,1,.92.42.67.42h.83l.58-.59.5-.41,1.09.08.83.42.42.5,1,.41h2.16l1.09.75,1.75,1,.75.58,1.33.5h1.25l1.33-.83.84.41,1.58.42.67,1.08,1.25.84h1.41l1.5.33H85l1-.5.64-1.08h2.5l1.25.41.83.5,1.5.09,1.17-.59v-1.41l1-1.09v-1.83l-.34-1-1.25-.67-.91-.66V204.4l-.09-1,.5-.58.42-1.42-.25-1-.75-1.16-1.08-1-.75-.59-.75-.82-.75-.84-.59-.66-.83-1.17-1.17.44-.3.64-1.53.09-.5-.25-1-.48-.92-.44L81.92,193l.16-1.25.25-1.5L82.25,189l-.25-.66-.83-.17-.5.42H78.42l-.25-.75-1.5.08-.5-.66-.42-.42-.08-.92-.5-.75-.92-.58-.42-.58-.91-.67-.17-1.25v-1h-1l-1.42-.25-.41-.92-.42-.75-.58-.91-.75-.5L67,177.08l-1-.56-1-.36H63.83l-.92-.93-.66-1H60.67l-1.43-.72-.82-.27L57.8,173l-.8-.58-.58-.83-.23-1-.11-.75-.91-.33-1-.29-1.11.1-.52.19-.74-.68-.6-.67-.66-.82-.5-.67h-.58l-.12-.9-.08-.84Z"/>
    </g>
    <g class="region" id="Frankivsk">
        <polygon class="cls-1"
                 points="102.58 145.58 103.67 147.16 104.5 148.16 104.5 148.83 105.83 151.16 105.83 152.16 105.83 153.83 105.83 156.33 107.33 157.66 107.33 159.83 105.67 160.83 106 162.5 106.75 163.42 108 163.75 109.58 163.75 110.17 164.58 109.58 165.08 108.83 165.58 108.17 165.58 107.75 166.5 107.5 167.92 108.17 167.92 109.25 169.25 109.83 169.25 111.17 170.17 111.83 170.17 113.33 170.83 113.33 171.42 114.08 172 114.08 172.75 114.08 173.58 114.5 174 115.58 174 116.25 175 116.92 175.75 117.25 176.25 118.83 176.25 119.5 176.25 121.08 176.25 122.17 176.25 123.08 177.08 123.83 177.92 125 178.25 126.01 178.92 126.67 179.5 126.67 180.17 126.67 181 127 182.42 127 183 127.5 184.25 126.92 185.5 126.01 185.17 125.25 186.25 125.33 188.08 125.33 189.83 125.5 191 126.01 192.25 125.67 193.25 125.25 194.25 124.58 195.25 124.25 196.42 123 195.75 121.75 195.33 121.33 195.33 119.75 195.5 118.33 196.42 117.17 197.42 116.17 198.33 115.83 198.75 115.04 199.67 114.33 200.5 113.75 201.08 112.75 202.08 111.5 202.08 110.67 202.08 110.33 203.25 110.42 204.25 109.83 205 108.92 205.83 107.58 206.66 106.75 207.49 106.08 208.16 105.25 209.57 105 210.49 104.42 211.74 104.42 212.99 104.67 213.82 105.08 215.07 105.17 216.32 105 217.4 104.83 218.57 104.83 220.15 104.17 221.15 103.42 222.4 102.58 222.65 101.75 221.99 101.33 221.15 100.67 220.24 99.5 219.57 98.58 219.49 97.67 218.32 97.67 217.65 96.75 216.65 96.75 215.49 95.58 214.74 94.92 214.32 94.17 213.32 94.17 212.99 93.92 212.65 93.92 211.24 94.92 210.15 94.92 209.24 94.92 208.32 94.58 207.32 94.16 207.1 93.18 206.54 92.42 205.99 92.42 204.92 92.39 204.08 92.33 203.4 92.91 202.56 93.1 201.91 93.25 201.4 93.06 200.63 92.84 200.15 92.33 199.37 91.87 198.88 91.52 198.56 90.87 198.01 90.22 197.44 89.67 196.83 88.92 195.99 88.23 195.18 87.5 194.16 86.77 194.44 86.33 194.6 86.21 194.87 86.03 195.24 85.74 195.26 85.37 195.28 84.71 195.31 84.5 195.33 84 195.08 83.51 194.84 83 194.6 82.49 194.35 82.08 194.16 82.01 193.63 82.01 193.17 82.01 192.54 82.05 192.03 82.17 191.23 82.25 190.74 82.33 190.24 82.29 189.58 82.25 188.99 82 188.33 81.59 188.25 81.26 188.18 81.17 188.16 80.77 188.5 80.67 188.58 80.13 188.58 79.44 188.58 78.78 188.58 78.42 188.58 78.34 188.36 78.28 188.17 78.17 187.83 77.91 187.84 77.22 187.88 76.67 187.91 76.44 187.6 76.17 187.25 75.88 186.96 75.75 186.83 75.72 186.44 75.69 186.16 75.67 185.91 75.53 185.7 75.37 185.46 75.17 185.16 74.86 184.97 74.65 184.83 74.25 184.58 74 184.23 73.83 184 73.59 183.82 73.29 183.6 72.92 183.33 72.85 182.81 72.75 182.08 72.75 181.5 72.75 181.08 72 181.08 71.2 180.98 70.42 180.84 70.14 180.41 69.92 179.91 69.5 179.16 69.13 178.57 68.92 178.25 68.4 177.9 68.17 177.75 67.59 177.42 67.11 177.14 66.78 176.96 67.25 176.67 67.64 176.23 67.59 175.8 67.5 175.12 67.4 174.33 67.33 173.83 67.68 173.23 67.99 172.71 68.17 172.41 67.99 171.98 67.67 171.16 67.58 170.62 67.5 170.08 67.66 169.53 67.83 168.96 68.19 168.09 68.57 167.31 69 166.66 69.51 166.03 70.06 165.13 70.46 164.33 71.02 163.64 71.63 163.03 72.02 162.43 72.33 161.41 73 160.66 73.53 160.31 73.75 160.16 74.14 160.29 74.75 160.49 75.3 160.52 75.96 160.56 76.75 160.99 77.58 160.99 78.58 160.85 79.42 160.66 79.84 160.32 80.25 159.99 80.79 160.07 81.42 160.16 81.78 160.28 82.39 160.48 83 160.59 83.5 160.62 84.01 160.64 84.71 160.6 85.14 160.51 85.76 160.39 86.55 160.29 87.22 160.25 87.75 160.22 88.25 160.18 88.8 160.04 89.37 159.74 89.83 159.5 90.16 159.42 90.67 159.47 91.46 159.47 92.13 159.45 92.71 159.43 93.17 159.41 93.87 159.37 94.33 159.35 94.75 159.33 94.98 158.62 95.17 158.08 94.83 157.3 94.58 156.74 94.17 156.65 93.5 156.49 93.22 156.03 92.9 155.49 92.75 155.24 92.88 154.57 93.02 153.85 93.3 153.14 93.68 152.5 94.05 151.7 94.33 150.99 94.52 150.51 94.75 149.91 94.49 149.59 94.08 149.08 93.75 148.41 94 148.18 94.31 147.9 94.67 147.58 94.82 147.11 94.98 146.65 95.17 146.08 95.39 145.58 95.69 144.94 95.89 144.48 96 144.24 96.38 144.24 96.84 144.5 97.14 144.57 97.71 144.64 98 144.58 98.42 144.52 99.02 144.64 99.53 144.79 100.21 144.94 100.73 145.07 101.48 145.27 102.21 145.47 102.58 145.58"/>
    </g>
    <g class="region" id="Chernivtsi">
        <path class="cls-1"
              d="M105.33,223.33h3v-.68h1.34l1.16-1.32v-.83l1.67-1.17,2-1.16v-.84h7.67l2.5-.66h8l1.16-.67h8l1.34-2.18.66-1.82v-1.33l1.17-2V207.5h7l1.17-2h6.66v-3.33l1.17-1v-1.34h2.17V201l2.33,1.17,2.17-1.5.5-.92.5-.92L170,200.5l2.33.83,1.34-.66.83-1.84h1l1.17-1.16.33-.34,1.17,1,1.83-1v-6.5l-1.83-1h-3.84l-.89,1.8-.44.87-.62-1.56-.82.19-.75.06-.75.56-1.06-.06-.87-.19-.57-.25-.75-.31-.37-.25-1.19-.13-.75.69-.75.69-.56.44-.38-.38-.43-.69-.57-.75-.18-.43-1-1.19-.88.31-.81.38-.81.68.25,1.13-.25,1-.38.31-.44-.25-.43-.37-.44-.69-.44-.19h-.37l-.32.25-.5.63-.18,1,.43.56-.06,1.19-.25.81-.31-.06-.5-.19-.56-.31-.57-.53-.25-.66-.37-.38.12-.37-.25-.56-.37-.32-.38-.06-.75-.12-.5-.07h-.56l-.5.13-.44.56-1.31.63-.69-.38-.62-.37-.75-.75h-1l-1-.5-.44-.13-.83-.62-.48-.32-.5-.56-.25-.81.12-.75a5.32,5.32,0,0,0-.81-.75,1.29,1.29,0,0,1-.5,0c-.19-.06.25,0-.19-.06s-.68.06-.87,0-.19,0-.56,0a8.08,8.08,0,0,1-.88,0l-.06.35-.75.56-.38.13-.62.06h-.56l-.38-.19-.31-.5-.31-.41-.19-.78-.38-.43-.25-.44h-.37s-.25-.5-.56-.56-.32.06-.63,0a2.48,2.48,0,0,0-.81,0,4.3,4.3,0,0,1-.69,0c-.37,0-1.12,0-1.12,0h-1.51l-.2.42-.28-.1-.22-.08-.41-.15-.11.16-.24.33-.19.28-.22.31,0,.5,0,.72,0,.47v1.69l.08.72.09.65.25.62.26.63-.18.51-.16.49-.19.44-.16.39-.3.52-.22.32-.22.33-.12.44-.07.25-.14.48-.17-.1-.36-.19-.58-.31-.33-.13-.43-.15-.63-.21h-.28l-.44,0-.53,0-.47.05-.55.2-.32.21-.47.3-.48.34-.39.33-.43.38-.45.4-.26.23-.25.23-.42.45-.28.33-.2.23-.19.22-.39.45-.25.3-.29.34-.57.59-.17.17-.35.34-.36.36-.21.21h-2.08l-.07.23-.13.47-.06.22,0,.53.06.72-.15.18-.44.57-.32.29-.46.43-.49.33-.37.23-.39.24-.49.41-.62.62-.61.61-.32.55-.36.61-.16.29-.14.5,0,.19-.08.25-.16.36-.19.4-.13.27-.07.16v1.2l.11.44.14.44.11.34.08.24.09.28.13.4,0,.46,0,.46,0,.32-.06.38,0,.3-.08.52,0,.28,0,.25-.08.52V220l0,.24-.28.43-.22.31-.33.54-.24.4-.17.27-.15.26-.41.12-.43.13.11.27.25.27.29.14h2.1Z"/>
    </g>
    <g class="region" id="Ternopil">
        <path class="cls-1"
              d="M148.33,118.34l.59-1.19-.59-1.22-2.28-.45-.93-.16-1.5-.11h-1.56l-1-.18-.73.14-1,.47-1,1-.34.77-.51,1.15-.18.4-.69-.12-.84-.15-.61-.1-1.69.31-1.49.31-1.45.06h-.87l-.56-.26-.48-.23-.71-.18-.44,0-.75-.09-.22.81-.22.79v.9l-.06.56-.31,1-.24.21-.2.48v.25h-.3v.1l.16.13.2.14.16.1.22.07,0,.18-.12.29-.11.29-.16.41-.14.35,0,.1v2.92l-.09.22-.16.43-.13.33-.2.52-.27.2-.33.25-.34.25-.32.1-.58.13-.53.12-.55.11-.27.42-.18.28-.21.33-.25.39h-4.34l-.18.27-.23.27-.46.21-.54.25v1l-.15.61-.19.72-.2.66-.21.68h-2.67v1.59l-.32.4-.43.42-.38.44-.55.64-.51.44-.52.41-.4.3-.52.27-.62.34h-1.25l-.42.18-.46.21-.62.27-.26.48-.23.41-.34.61-.46.29-.6.37-.28.18.27.39.46.67.45.63.36.44.38.45v.67l.29.5.17.31.62,1.08.25.44v5.17l.46.4.28.25.76.68v2.17l-1.66,1,.29,1.45,0,.22.41.49.26.33.08.1.58.15.67.18h1.58l.59.83-.36.31-.46.35-.46.31-.72,0-.39.85-.28,1.49h.67l1.08,1.33h.58l1.34.92h.66l1.5.66,0,.62.7.55v1.58l.42.42h1.08l.67,1,.67.75.21.33.12.17h4.92l.91.83.35.38.19.21.21.25h.46l.89.45.57.38.92.75V181l.33,1.42V183l.18.45.32.8-.38.83H129l1,0h.52l1.44,0,.24.13.32.43h.37l.25.44.38.43.19.78.5.72.5.38.75,0,.63-.11.34-.18.41-.31.18-.13.06-.35.59,0,.69,0,.16,0h.72l.15,0,.19.06.37,0,.33.14.21.18.19.18.21.23-.08.49,0,.53.17.54.25.28.44.41.5.34.33.25.73.35.19.09.46.23.5.18h.85l.28.28.47.47.43.25.19.12.27.15.55.16.72-.34.54-.32.08-.4-.09-.72-.38-.4-.41-.6-.53-.69-.25-.59-.28-1-.28-.9-.37-.57-.54-.4L145,186l-.37-.56-.16-.78.19-.94.37-1,.07-1.19s.06-.4.09-.68a7.5,7.5,0,0,1,.19-.85l.22-.31-.13-.31-.37-.28-.44-.32-.35-.4a.87.87,0,0,1-.18-.28l0-.13-.16-.69.09-.56.27-.94.5-1-.25-1,.17-.66-.42-.92.42-.33-.17-.75v-.34l-.16-.5-.42-.66.58-.67.75-.58.34-.92.25-1.33.16-.84-.16-.58-.17-.5-.58-.58-.25-.5-.25-.34v-1.08c.41-.67.66-1,.66-1l.59-.5.41-.43.59-.65.08-.84v-1.16l-.08-.5-.17-.42-.42-.33.09-1v-.34l-.34-.42h-.25l-.08-.66-.08-.75-.25-.67-.67-1.16-.58-1-.09-.75.25-.75.09-.34.16-.74.34-.58.83-.92.83-.58.25-1,.17-.81.08-.41.67-.59v-.83l-.08-.42-.42-.25.42-1,.25-1v-.5l-.25-.41-.25-1.25-.17-.34-.5-.77-.42-.56-.16-.42L146,134l-.17-1.17v-.42l.09-.91-.17-1-.17-.75.42-.92.75-1.33.25-.75.33-.59.34-.41v-.59l.08-1,.25-.69.33-.39a1.17,1.17,0,0,0,.59-.17,2.11,2.11,0,0,0,.5-.66v-.84l-.42-.25-.5-.41-.42-.84.17-.75Z"/>
    </g>
    <g class="region" id="Khmelnytskyi">
        <path class="cls-1"
              d="M149.1,118l.23,1h.36l.69-.52.53-.53.62-.41.8-.54,1.3-.6,1.08-.5.83-.38,1.13-.52.57-.57.84-.85.92-.91.6-.8.84-1.12.92-1,.8-.58.79-.59.84-.61.89-.62.83-.56.7-.46.82-.55.64-.43H170l.58-.77.57-.76.54-.72.31-.41h3v.83l.44.88.94.5.43,1.06.63.19.31.43.75.75v.57l-.37.5-.44.87-.38.63-.5.62.57,1,.43,1.06.69.44.63.69a3.73,3.73,0,0,1,.87,1l.25.34v.28l.69.63.94.94.5.56.68.81.75.25.57.5h.81l1.12-.44,1.13.44v1.81l.5.44v1.5l.44,1.06v1.5l-.32.63-.12.75-.5.75-.75.81s0-.44-.31,0l-.32.44-.43.44-.32.43.13.5.37.57s.32-.19.25.37l-.06.56-.25.5-1.06.44-.06.94.18.37.32.38.5.56.25.31.18.32.32.37c.37.38.06-.12.37.38s.56.87.56.87h.19l.19.38H188l.38.37a.26.26,0,0,1,.43,0,2.34,2.34,0,0,0,.88.5l.44.19s.68.37.87.44.44.56.44.56l.69.75.37.81-.56.38-.94.56-.69.69.13.62.56.56V145h.44l.31.63-.31.81-.44.37-.44.75c.13.57-.06-.06.13.57l.31,1s.56-.38,0,.37l-.56.75a1.37,1.37,0,0,0-.5.63c-.13.37.12-.13-.13.37a2.94,2.94,0,0,1-.75.88l.44,1s0-.13.25.43.25,0,.44.61.75.71.81,1.08-.37.38,0,.63l.38.25.37.37-.12.38v.68l.12.5.06.57.07.43s.12,0,.25.32.68,1.31.68,1.31l.44.62a3.63,3.63,0,0,0,0,.82,6.88,6.88,0,0,1,0,1.12l0,1.13-.34.87s-.06.38-.13.69l-.06.31-.75,1h-.31a4.88,4.88,0,0,0-1,.69l-.19.25h-.56s0,.31-.25.31h-1.5l-.13-.37a6.6,6.6,0,0,1-.5-.57l-.12-.18h0l-.31-.25h0a10.31,10.31,0,0,1-.63-1.13l-.56.06-.38.32-.5.31-.87.75-.56.37-.38.07-.56.06a5.89,5.89,0,0,0-.69.12l-.19.07s.19-.44-.56.37l-.75.81-.19.75a.74.74,0,0,1-.06.5l-.12.19a5.32,5.32,0,0,0-.44.56l-.31.44-.44.63h0a5.53,5.53,0,0,0,0,1.5l-.06.87-.25.69.31,1.37.25,1,.06,1-.25.88-.19.56-.37,1-.06.44.37,1.06-.12.63-.07.62-.31.56-.31.94-.25,2,.06.38.31.56.11,1.39h-3.84l-.33.67-.4.8-.6,1.2-.23-.58-.39-1-.82.19-.37,0-.38,0-.51.38-.24.18-.81-.05-.75-.12-.37-.08-.57-.25-.43-.18-.32-.13-.87-.31-.69-.07-.75.69-.42.39-.33.3-.56.44-.61-.74-.35-.52-.27-.37-.33-.62-.45-.54-.55-.65-.36.12-.52.19-.81.38-.3.25-.51.43.25,1.13,0,.19-.09.34-.11.47-.38.31-.63-.41-.49-.6-.19-.3-.44-.19h-.37l-.32.25-.5.63-.11.62.07.56.29.38,0,.62,0,.57-.25.81-.31-.06-.5-.19-.56-.31-.29-.28-.37-.49-.16-.42-.37-.38.12-.37-.25-.56-.37-.32-.73-.12-.63-.09-.52,0-.81.13-.28.06-.09-.72-.38-.4-.67-.94-.52-.94-.28-1-.22-.7-.43-.77-.54-.4-.73-.63-.28-.7-.08-.39.19-.94.18-.46.22-1.1.13-1.28.19-.85.22-.31-.13-.31-.37-.28-.44-.32-.35-.4-.21-.41-.16-.69.17-.82.19-.68.19-.36.18-.38.07-.53-.19-.73.07-.25.1-.41-.12-.27-.14-.31-.16-.34.4-.41-.06-.28-.09-.39-.08-.6-.08-.24-.15-.24-.27-.42.38-.43.47-.44.48-.38.14-.39.26-.89.19-1,.16-.84-.16-.58-.42-.76-.58-.82-.25-.34v-1.08l.46-.71.53-.57.67-.65.59-.65.08-.84v-1.16l-.08-.5-.17-.42-.42-.33,0-.48,0-.52v-.34l-.34-.42h-.25l-.08-.66-.16-.95-.34-.75-.36-.64-.3-.52-.23-.39-.23-.7,0-.38.25-.75.09-.34.16-.74.34-.58.25-.28.38-.42.61-.51.42-.29.16-.66.18-.81.16-.78.43-.38.24-.21V142l-.08-.82-.42-.25.18-.43.33-.92.16-.89-.25-.67-.11-.53-.14-.72-.17-.34L147,136l-.21-.32-.42-.56L146,134l-.17-1.17,0-.83,0-1-.18-.9-.08-.36.42-.92.45-.79.37-.75.31-.77.31-.49.23-.28v-.59l.08-1,.1-.28.3-.59.18-.21.59-.17.21-.2.29-.74v-.56l-.42-.25-.5-.41-.42-.84.09-.37.08-.38.08-.85.27-.54.16-.33Z"/>
    </g>
    <g class="region" id="Zhitomir">
        <path class="cls-1"
              d="M196.5,60l-.75,1.33v1.75l-1,1.42-1.47,1.08h-.7l-1.08-.75-.5-.16-1.17.82-1.55,1.08-.94.88-.62.86-.34.45-.57.79-.36.5-.45.62-.15.75-.18.91-.37,1-.32.87-.57,1.61L183,77l-.65,1.56L181.74,80l-.41,1-.6.67-1.1,1.22-.78.87-.52.57-.16,1.17L178,86.67v1.58l.29,1.32v1l-.12,1.14L178,93.33l-.33,2-.22,1.76-.29,1.6-.38,1.51-.8,1.29-1,1.18.58.83-.14.88.94.5.43,1.06.63.19.7.82.36.36-.37,1.07-.44.87-.38.63-.35.87.16.29.56,1.2.55.59.57.5.93,1,.27.4.51.86,1.08,1,1,1.15.62.57.56.19.57.5h.81l.83-.32h.62l.8.31v1.81l.5.44v1.25l.31,1,.13.75v1.06l-.32.63-.12.75-.37.55L187,128l-.26.28h-.31l-.48.6-.49.58,0,.63.31.47.32.27,0,.58-.27.68-.39.16-.5.21-.17.07-.05.67.17.64.32.38.5.56.36.51.5.6.41.5.41.64h.19l.19.38H188l.38.37.24-.11.56.38.76.34.72.36.59.4.19.32.52.56.39.68.46.26h1.07l.31-.5.44-.31.68-.32,1.19.13.88.25.93.37.75.07.57-.13.31-.31.69-.38,2-.5.81.19,1.12.63v-.19l.82-.25.87.06,1.38.25.37-.31.38-.25.5-.56.37-.44.63-.25a4,4,0,0,1,.5.06,3.69,3.69,0,0,1,.87.25c.31.13.88.63,1.06.69a3.51,3.51,0,0,1,.57.31l.5.25.43.06.75.13,1.07.12.75-.5v-.31l.5-.06.62-.38.38-.25.5-.5.56-.62.37-.31.88-.38.81-.81.63-.44a7.24,7.24,0,0,0,.81.13,1.85,1.85,0,0,1,.5.12,2.69,2.69,0,0,1,.94.44l.56.37.44.82v4.12l-.38,1,.38.81v2.75l.62.82.38.68.5.38h.25a2,2,0,0,0,.56.62c.31.19-.13,0,.31.19a2.33,2.33,0,0,0,1.19,0l1.19.43h2.87v-.24l.75-.44.94-.81a1,1,0,0,1,.37-.31l.5-.19.94-.56h.63l.43-.07.44-.18.5-.25h.31l.38-.25v-1.75l-.44-.25-.44-.63-.37-.44V142l.12-.62.32-.5a2.84,2.84,0,0,1,.18-.5l.13-.25.5-.19.56-.31.38-.19.56-.38.81-.37,1.06-.94.69-.5,1.25-.81a.5.5,0,0,0,.38-.19,7.82,7.82,0,0,1,.5-.62v-.19a7.78,7.78,0,0,0,.81-.75,2.44,2.44,0,0,1,.44-.44V132l-.5-.25-.5-.75-.19-.31-.38-.31-.43-.63.06-.5.06-.56.06-.31.07-.32.18-.5a4.81,4.81,0,0,1,.32-.81s.12-.31.31-.31H246a2.61,2.61,0,0,1,.38-.69c.18-.19,0-.62,0-.62l.08-.32a2.78,2.78,0,0,0,0-.43c0-.19,0-.88,0-.88h-.53l-.19-.5a.65.65,0,0,1-.31-.31l-.06-.19-.13-.5v-.5c0-.19.06-.69.06-.69l.13-.43v-.5l.19-.82a.94.94,0,0,0,0-.43l-.07-.19-.5-.56-.56-.38a1.5,1.5,0,0,0-1-.37l-.37-.44-.19-.44v-1.44l.06-.37.13-.44a6.13,6.13,0,0,1-.07-.62v-.19a2.46,2.46,0,0,0-.5-.06c-.25,0-.62-.07-1-.07s-.87-.18-1.18-.18a1.89,1.89,0,0,1-.82-.07c-.43-.12-.81-.25-.81-.25l-.19-.5v-.37l.19-.5.44-.63.31-.37s.31-.19.38-.38l.06-.18.5-.88s.56-.06.06-.31l-.5-.25-.37-.38.18-.43.44-.25.63-.88.12-.5s.25-.25-.19-.37-.87-.32-.87-.32a4.36,4.36,0,0,0-.19-.47,2.72,2.72,0,0,1-.06-1,1.34,1.34,0,0,1,.19-.5l.12-.46h.88l.31-.42.56-.44.38-.25.56-.62.37-.5v-.56l.19-.75-.37-1.5-.38-.19-.5-.63-.44-.12-.81-.13-.37-.12-.13-.69.06-.62.07-.38.31-.44.37-.31v-.5a1.5,1.5,0,0,0-.25-.69,3.12,3.12,0,0,1-.37-.5l-.38-.62-.37-.88-.69-.93-.25-.32-.62-.5-.38-.31-.5-.31.38-.44s.5-.5.68-.5a1.91,1.91,0,0,0,.57-.19s-.13-.06.31-.25l.44-.18.68-.57.19-.5a.44.44,0,0,1,0-.31,1.59,1.59,0,0,0-.06-.62l-.13-.57-.06-.43a6.28,6.28,0,0,1-.37-.75l-.25-.44s-.19.21-.38-.27l-.19-.48-.5-.31-.43-.19a1.89,1.89,0,0,0-.44-.25,1.57,1.57,0,0,0-.69-.25l-1-.13s-.06-.06-.31-.06a3.16,3.16,0,0,1-.94-.5,1,1,0,0,1-.19-.5,3.45,3.45,0,0,0-.12-.69c-.06-.31-.13-.81-.13-.81v-.31l.13-.56.12-.5.19-.5.31-.25s.07,0,.5-.63-.31,0,.44-.62l.75-.63s-.06.19.31-.31a10.07,10.07,0,0,0,.69-1.06l.06-.38-.25-.44v-.43a1.91,1.91,0,0,1-.18-.38,4.9,4.9,0,0,0-.75-.87c-.19-.19-.32-.13-.57-.32s.19.19-.25-.18a2.18,2.18,0,0,1-.56-.69l-.19-.31a1,1,0,0,0-.31-.44c-.19-.13,0,.31-.19-.13s-.31-.87-.31-.87-.31-.19-.31-.38a1.42,1.42,0,0,0-.19-.5l-.12-.37v-.88l.12-.37v-.75a2.64,2.64,0,0,0,0-.69,7.85,7.85,0,0,0-.19-.81s-.12.5-.25-.44l-.12-.94-.25-.43-.31-.25s-.32-.13-.38-.32l-.06-.18-.69-.63h-.19l-.68-.5h-1.25l-.75.75-.5.88-.38.62-.56.44s-.44.5-.63.5h-1.62l-.44.06-.44.06-.5.25-.62.5-.5.44-.69.81.06.32-.37,1.31a4.81,4.81,0,0,0,0,.94,2.72,2.72,0,0,1,.06,1,6.62,6.62,0,0,1-.62,1.06l-.07.31-.68-.25-.32-.31-.43-.38-.38-.43-.37-.19-1-.25-.44-.81v-1l.06-.5s.06,0-.12-.57-.38-1.18-.38-1.18l-.31-.38s0-.12-.38-.25-.43-.25-.75-.37-.37-.38-.81-.38a8.27,8.27,0,0,1-1.12-.12l-.57.18s-.18-.06-.37.19a2.85,2.85,0,0,1-.56.5,2,2,0,0,1-.69.25,6.91,6.91,0,0,0-.88.13s-.56-.13-.68-.32-.25-.5-.44-.62a6.51,6.51,0,0,1-.69-.75l-.06-.31a3.28,3.28,0,0,1-.38-.63,3.86,3.86,0,0,0-.43-1c-.19-.19-.13-.44-.44-.5s.19-.06-.31-.06a4.3,4.3,0,0,0-.88,0c-.44.06-.62.06-.81.25l-.19.19-1.31.93s.56-.37-.25.44l-.81.81-.44.25-.5-.12a1.39,1.39,0,0,1-.56-.13,3,3,0,0,0-.69-.18,1.26,1.26,0,0,0-.38-.07h-.62l-.31-.06-.44-.12-.31-.44-.13-.5-.37-.25h-.5Z"/>
    </g>
    <g class="region" id="Vinnytsia">
        <path class="cls-1"
              d="M240.67,147.5l-1-.83-.73-.79-1.19.5-.87.25h-.63l-.74.44-.7.31-.37.31-.6.52-.7.5h-.45l.06.47h-3.37l-.3-.29-.39-.14H227.5l-.58-.42-.29-.39-.75-.38-.23-.41-.15-.27-.21-.28-.41-.54v-2.75l-.18-.38-.2-.43V142l.38-.5v-4.12l-.44-.82-.56-.37-.67-.35-.77-.21h-.31l-.5-.13-.63.44-.66.65-1,.54-.73.7-1.08,1-.62.38-.5.06v.31l-.45.3-.3.2L215,140l-1.18-.18-.43-.06-.8-.43-.86-.53-.47-.29-.87-.25-.5-.06-.63.25-.37.44-.3.32-.58.49-.37.31-.51-.09-.42-.08-1-.12-.57,0-.34.11-.27.08v.19l-.53-.3-.59-.33-.5-.12h-.61l-.76.19-.68.17-.95.44-.88.44-.75-.07-.93-.37-.37-.11-.51-.14-.8-.09-.39,0-.68.32-.61.57-.14.24h-1.07l-.56.23-1,.64-.33.24-.41.4-.14.29.24.65.31.31.11.43V145h.44l.31.63-.22.56-.33.45-.2.17-.25.43-.19.32.22.86.15.48.07.23.21.05-.21.32-.39.52-.27.31-.35.43-.11.35-.21.38-.27.32-.34.32.19.43.19.42.23.4.36.49.11.17.05.13.39.56.39.43,0,.37-.09.16.32.3.42.35.1.33-.06.71.07.48.11.77.07.43.25.32.14.3.16.31.19.34.31.53.32.45,0,.63v.62l0,.88,0,.68-.05.4-.28.73-.1.53-.05.28-.23.44-.56.75h-.31l-.39.23-.46.31-.34.4h-.56l-.13.27-.75,0h-.87L188,168l-.41-.47-.32-.34-.31-.42-.26-.45-.17-.35-.56.06-.38.32-.5.31-.43.37-.44.38-.31.2-.25.17-.38.07-.56.06-.36.05-.52.14V168l-.24.16-.41.43-.24.26-.42.45-.1.4-.09.35-.06.5-.12.19-.22.26-.22.3-.36.51-.21.3-.22.5v2l-.27.78v.31l.21.65.16.66.19.75,0,.45,0,.55-.25.88-.27.77-.1.29-.16.41-.09.53.22.65.13.52-.1.52-.07.62-.38.77-.24.73-.11.85-.12.93v.38l.23.55.16.73.07.89.54.3.43.24.35.18.51.28v5.89h1.25l.22-.25.44-.22.47-.16H183l.94.41.84.69.38.22,1.06.15h1.28l.81-.15h.82l.43.5.44.56.6.47.62.72.44.78.47.75.76,1.22s1.75.42,1.91.75,1.5.5,1.5.5l.67.55.33.7.42.92.17.75.33.83h2.08s.59-.83.92,0a10.59,10.59,0,0,1,.5,1.83h.83l.5-.83.25-.58h1.5l1.09.41a1.2,1.2,0,0,1,.16.59,3.76,3.76,0,0,0,.09.91c.08.5.16.25,0,.92a1.7,1.7,0,0,1-.5.92l-.09.75h1.25s.59-.5.84,0,.5,1.16.5,1.16l.33.42h.69v-1.17l.73-1h1.41l.75-.41,1.34.33,1,.42.58.25,1.5.25s.92.16,1.17.25,1,1.08,1,1.08h.16l.42.83.42.84s.25,0,.41.5a8.22,8.22,0,0,0,1.09,1.58l1-.67,1.08-.25.5-.75.42-.25.5-.66.16-.34.42-.75.17-1.16.16-.42.67-.17.33.17.84.25.5.25.83.5.58.5.34.58.83.25,2.08.17,1.67.58.33-.08.75-.67.42-.75,1.5-.08,1,.42.33.33.42.42.58.25a1.46,1.46,0,0,1,.67,0,15.47,15.47,0,0,0,1.75.08h.42l.58-.33.5-.17.5-.42.33-.66v-.42l.42-.75v-1l.5-.75.33-.25.84-.5,1-.25,1.25.25.41.17.67.16.42.42.83.08.75-.5.67-.66,1.08-.25.5-.75-.33-.34v-1.25l-.17-.5-.75-.08-.33-.08-.59-.67-.5-.17-.58-.08-.75-.17-.5-.58-.75-.33-.42-.37-.08-.38-.33-.59v-.5l.33-.5.42-.41.41-1,.34-.34h.66l.75.34a1,1,0,0,0,.34.5,2.55,2.55,0,0,0,.66.25l.25.08h0l.75.08s1.25-.5,1.5-.58a2.06,2.06,0,0,0,.59-.42,7,7,0,0,0,1.08-1.33v-.5l-.92-.25-.58-.08-.75-.17v-.83l-.17-.5.34-1,.41-.75-.16-1.09-.34-.58-.33-.33a.53.53,0,0,1-.08-.34v-.91l-.09-.59-.58-.5-.92-1.16-.58-.75-.67-.42-.75-.17-.16-1.16.08-.75s.33-.17-.08-.5a1.08,1.08,0,0,0-.84-.34c-.25,0-.33.34-.75.17l-.41-.17-.34-.66-.16-.75a7.81,7.81,0,0,0,0-1.42c-.09-.33.08-.08-.34-.67l-.41-.58s-.59-.25-.84-.33-.25.5-.25-.09a5.47,5.47,0,0,1,.09-1.33c.08-.33.41.08.16-.67l-.25-.75h0a12.19,12.19,0,0,1-1.16-1s-.5-.41-.75-.41h-.25l.08-.84.25-.41.33-.34v-.41a2.11,2.11,0,0,1-.66-.5,1.23,1.23,0,0,0-.67-.34l-.25-.58-.17-.33.17-.84a.84.84,0,0,1,.33-.41c.25-.17,1.09-.92,1.09-.92s.08.17.5-.42l.41-.58s.59-.42.67-.75a9.24,9.24,0,0,1,.58-1.25l.17-.58c.17-.59.42-1.59.42-1.59l-.42-.75s-.33-.33-.33-.58-.34-.42-.42-.67-1.5-1-1.5-1l-.75-.66-1.17-.92-.66-1.08-.5-.17-.34-.83-.66-.67-.34-.42.75-.66.5-.34.75-.83.17-.5.5-1.08-.42-.75-.58-.42-.33-.17a2.44,2.44,0,0,1,.41-.58l.25-.25h0a2,2,0,0,0,0-1.08,5,5,0,0,1-1.08-1.34l-.17-1.06v-.6Z"/>
    </g>
    <g class="region" id="Kiev">
        <path class="cls-1"
              d="M267.67,75.5l1.66,1.17,1.17,1.5v5l1,3.5,1,2v2.17l1.17,1.5,1.33,1v1.83l.83,2v.67h3.33l2.51.83h3.16s.17-.33.67,0l3.33,2.17v1l-.66.83-.34,1.37h1v1.46c.5.84,1.17,1.84,1.17,1.84h1l.67.83h.83a2.09,2.09,0,0,1,1.5,0,17.18,17.18,0,0,0,1.67.67c1.33.16,1.83-.17,2.33,0l.5.16h1.33v-.83l1.84-1v-.67l2.66-1,1.34-.5,1-1,1.33.8v.83l1.5.83,1.33.34,1,.66-.66,1L309,109l1.67,2.84,1.16.66s-1.16.34,0,.67a6.19,6.19,0,0,1,2,1s-.5,1.67,0,2.17l.5.5a5.33,5.33,0,0,0-1,1A6.14,6.14,0,0,1,312,119l-1.83,1-.34,1.17s0-1-.16.67l-.17,1.66-.5,1.17-2,1.17-.83,1.83v2l-.34,1.67-.83,1.33-1.83,2.83a9.79,9.79,0,0,0-1,1.17,7.13,7.13,0,0,1-2.17,1.17l-2.17-1-2-1.34H291l-2.17,1.34-.83,1-.83,2.5.33,2.16s.17,1.67.17,2.17a9.28,9.28,0,0,1-.34,1.67l-2.16,2,2.83.84-.67,1.66a13.2,13.2,0,0,0-1.16,1,20.64,20.64,0,0,1-2.53,1.66v.67l-2.14,2-1.5,3.17-.84.83h-5.1l-.5-.86-.87-.37-.56.06-.69.69-.44.48h-2.12s-.63,0-.88,0-1.12,0-1.12,0,.43-1.32-.32,0-1.06,1.76-1.06,1.76.19-.5.31.44l.13.93-.75.44h-.81l-.94-.62-.31-.19c-.32-.13.31-.06-.75-.19s-1.07-.37-1.44-.37h-.38l-.56-.13-.25-.06-.44-.19-.31-.19-.37-.81h-.5c-.19,0,.18-.12-.19,0s.44-.62-.38.13-1.12.81-1.12.81l-.44.44-.56.25s.37-.82-.56,0l-.94.81-.25.31h-.31l-.63-.37a.53.53,0,0,0-.56.37,2.44,2.44,0,0,1-.69.81l-.87.57s.31.68,0,.93-.13.44-.63.5a7.64,7.64,0,0,0-1.19.32c-.25.06-.56-.25-.81,0s-.5-.18-.69,0-.84.08-.84.08l-.31,0,.26-1-.59-.94-.32-.7-.45-.56-.33-.23-.62-.37-.36-.2-.36-.32-.55-.47-.34-.27-.33-.26-.34-.26-.29-.48-.2-.32-.17-.28-.5-.17-.2-.49-.33-.53-.32-.33-.26-.29-.23-.28.53-.47.55-.41.44-.42.39-.42.26-.61.23-.5.21-.46-.14-.48-.22-.39-.24-.18-.34-.24-.21-.11-.12-.06.18-.29L241,153l.22-.24.12-.12.07-.47,0-.41-.13-.28-.28-.28-.33-.38-.28-.41-.12-.26-.1-.62,0-.24,0-.34.06-.5.15-.28.18-.33.2-.36-.29-.24-.31-.26-.21-.17-.19-.16-.34-.37-.14-.15-.25-.27v-1.1l-.07-.69-.37-.21-.25-.36-.35-.46-.21-.25v-.31l0-.63.1-.49.32-.5.24-.62.57-.32.56-.31.68-.39.81-.43.66-.47.33-.3.43-.36.7-.5.51-.33.46-.3.55-.3.19-.25.31-.37v-.19l.27-.23.45-.42.53-.54V132l-.5-.25-.27-.4-.15-.22-.27-.44-.38-.31-.34-.5-.09-.13.08-.69,0-.37.1-.53.13-.37.17-.53L245,127l.14-.3.11-.15.17-.08h.44l.18-.15.17-.34.24-.32,0-.29-.06-.21.08-.32v-1.43l-.13.12h-.21l-.24-.13-.14-.37-.2-.15-.11-.16-.12-.43-.07-.35v-.41l0-.48.07-.36.08-.47v-.31l.1-.45.09-.37,0-.52-.2-.28-.19-.22-.26-.24-.45-.3-.18-.15-.35-.15-.35-.07-.33-.25-.2-.27-.15-.36v-1.44l.06-.37.09-.3v-.36l0-.4v-.19l-.35-.06h-.15l-.44,0h-.19l-.37,0L241,113l-.66-.11H240l-.41-.08-.5-.15-.31-.1-.1-.26-.09-.52.19-.59.33-.47.3-.39.37-.33.19-.37.23-.42.14-.24.36-.3-.17-.23-.25-.13-.25-.12-.19-.19-.18-.19.18-.43.55-.41.17-.23.18-.26.17-.23.08-.35.1-.25-.08-.2-.17-.07-.32-.11-.17-.06-.38-.15-.19-.47-.07-.4v-.38l.07-.43.18-.45.07-.26h.88l.05-.07.26-.35.28-.22.28-.22.2-.13.27-.22.23-.26.24-.26.26-.36.11-.42v-.28l.08-.31.06-.25v-.38l-.06-.24-.07-.29-.08-.32-.06-.25-.05-.21-.15-.08-.12-.06-.11,0-.16-.2-.19-.24-.15-.19-.19,0-.25-.07-.45-.07-.36-.06-.25-.08-.15-.16-.06-.36,0-.36,0-.16.06-.5,0-.19.19-.27.12-.17.37-.31v-.28l0-.44L241,93.1l-.25-.39-.15-.19-.13-.21-.2-.33-.18-.29-.13-.31-.06-.15-.18-.42-.2-.26-.15-.22-.17-.22-.17-.23-.16-.21-.23-.22-.24-.19-.24-.2-.38-.31-.4-.25-.1-.06.24-.28.14-.16.23-.22.27-.2.42-.13.46-.3.62-.27.48-.4.31-.46.08-.52-.11-.82-.1-.55-.15-.46-.2-.4-.2-.38-.11-.2-.16,0-.13-.13-.14-.31-.14-.34-.17-.11-.2-.13-.41-.2-.26-.14-.17-.1-.16-.07-.19-.1-.25-.11-.38-.06-.37,0-.34,0-.28-.06-.39-.08-.21-.1-.19-.11-.17-.11-.17-.12-.15-.3,0-.2,0-.33-.12-.56-.09-.61,0-.5.09-.37.09-.36.14-.43.26-.36.36-.35.27-.38.09-.32.22-.2.55-.45.49-.4.26-.34.26-.39.2-.33.15-.38-.11-.44-.11-.19v-.31l-.18-.5-.27-.37-.22-.24-.44-.39L236,70l-.14-.11-.13-.12-.22-.25H236l.34-.17h1.32l1-.34h1.12l.41-.19h.19l.31-.25.25-.18,0-.22a.66.66,0,0,0,.38-.22c.15-.19.5-.53.5-.53l.43-.28h.28s0-.16.22-.22a1.66,1.66,0,0,0,.5-.32,3.84,3.84,0,0,0,.38-.34L244,66s0,0,.16-.25l.25-.47s-.13.13.09,0a1.57,1.57,0,0,1,.56-.22h.6c.18,0,0-.43.34,0a6.85,6.85,0,0,0,.5.75,4.26,4.26,0,0,1,.59.72,4.75,4.75,0,0,1,.38.69,3.79,3.79,0,0,1,.12.72l.28.31.25.06c.16,0,.07.13.35.1a2.83,2.83,0,0,0,.5-.1l.4-.12.16,0,.5-.1.25-.09s.22-.22.31-.22l.41,0,.22-.16.5-.47.31-.4.31-.5.1-.28s.15-.1.22,0,.21,0,.37.09a.9.9,0,0,0,.38.09l.4-.12.22-.06a1.39,1.39,0,0,1,.28,0,5.44,5.44,0,0,0,.63,0,2.9,2.9,0,0,0,.78.31,10.55,10.55,0,0,0,1.19.06h.5l.71,0,.6.06.44-.13a3.28,3.28,0,0,1,.62.13,1.31,1.31,0,0,1,.47.25c.25.22.41.37.69.65s.22.32.62.72.78.75.78.75a2.87,2.87,0,0,1,.6.5c.15.22,1,.85,1.09,1.1l.25.72.25.71s0-.28,0,.32.1.84.1.93a2.06,2.06,0,0,0,0,.38c0,.19-.16-.16,0,.19s.12.28.25.5a5.52,5.52,0,0,0,.62.72l.5.18.66-.18.19-.07.65.38Z"/>
    </g>
    <g class="region" id="Chernigov">
        <path class="cls-1"
              d="M314.33,114.92h2.75l.84-.59.66-.41v-.59l1.09-.5.58-.33h.58l1.09.33,1.33.17,1,.33.92.38.58.62,1.17-.25,1.75.09H330l1.5-.46,1.33-.54.75-.67,1.34-.75.83-.83,1.08-.59.92-1.16.58-.59.42-.75,1.25-1.25.42-.75.58-1.16v-2.75h-1.08l-.84-.92.25-.67.25-.83.5-.58.92-.42.58-1v-.58l.67-.67h-.58l-.67-.92-.25-1a5.5,5.5,0,0,1,.42-1.5c.33-.75.66-1.33.66-1.33s.09-.92.42-1.17.5-1.25.58-1.66a18.4,18.4,0,0,0,0-2.25l0-1.67-1.7-.42h-1.59l-.41-.33-.59-.83-.75-.67H337l-.33-1.08h-.84v-.84l.17-.83.58-1,.09-.42.41-.91.92-1.17.67-1.17a3.16,3.16,0,0,0,.41-.91c0-.25.09-.92.09-.92l-.17-.83-.33-.67-.25-.5-.84-.58-.25-.42h-.25v-1c0-.25.84-.83.84-.83s-.34-.09.25-.42,1.5-1,1.5-1a1,1,0,0,0,.33-.33,9.21,9.21,0,0,0,.5-1.09l.58-2.33.25-1.25V60.67l-.25-.84-.16-1.41-.17-.5-.42-1.84-.16-.5-.25-.58-.75-.5h-.5l-.25-.58-.09-.84.42-1.58-.08-.92.25-1.16.66-.92.59-1.08.83-.92.83-.67,1-.33.63-.33,1.08-.59,1.09-.83V42.58l.75-.83-.34-.67.34-.75v-.5l1.5-1,.66-.75-.5-.41-.41-.67-.59-.33h-1.25l-.91-.92-.17-.67-.33-.58-.17-.67V32.67l.25-.84.58-.91.34-1.34.16-.66.59-.92.25-.92h-.5l-1.34-.41h-1.5L342,26.33l-1.83,1-1.34.34-1.08,1-.75,1-1,1s.33-.5-.5.41a11.88,11.88,0,0,1-2.17,1.75l-.75-.16-1.12-.17-.79-.42-.67-.33a6.18,6.18,0,0,0-.92-.17c-.25,0-2.5.34-2.5.34l-.33-.42-.42-1.58-.58-.42a2.09,2.09,0,0,0-.92-.33l-1.5-.25a2.16,2.16,0,0,0-1.33,0c-.58.25-1.58.75-1.58.75l-.92.08-.92,1.17a2.89,2.89,0,0,1,.34.83,8.23,8.23,0,0,1,.33,1.33,10,10,0,0,1-.92,1.75l-.08.84-.08.75a1.87,1.87,0,0,1-.17.58,5.11,5.11,0,0,0-.25.83l-.83,1s.41-.41-.34.25-1.75,1-1.75,1.34-.75,1-.75,1l-1,.41s.09.17-.91,0a13.71,13.71,0,0,0-1.92-.16,8.19,8.19,0,0,1-.92-.09,9.94,9.94,0,0,0-1.08-.08h-.5s-.33.17-.5-.42a4.56,4.56,0,0,1,0-1.58l-.42-.25-.5-.17L302.75,39l-2.17.08c-.25,0-2.83-.5-2.83-.5l-2.08-.08-2.34.33-1.83.34-2.33,1.08-.75,1.5a1.32,1.32,0,0,1-.59,0A3.78,3.78,0,0,1,287,41l-.83-.83s-.34-.5-.59-.5a13,13,0,0,1-1.33-.25h-.61l-.89.41-.67.34s.5.33,0,.41S280.5,42,280.5,42l-.5.75-.5.92-.34.83-1.33,1.08s1-.58-.66.59a19.29,19.29,0,0,0-2.5,2s0,1.16-.35,1.41a10.85,10.85,0,0,0-1.07,1.25l-.75,1.09-.92,1.33v1.42l-1,1.41-.58.67s.17,0,0,.58-.42,1.42-.42,1.42v.58l-.75.92-.5.58.42,1.17.5,1.25.92,1.08.83,1.09-.33,1a1.74,1.74,0,0,0-.34.58,10.88,10.88,0,0,0-.33,1.33l1.17,1.5.83.8s.58,1,.67,1.2l.08.25-.5.59-1.33,1.16-.75.34-.84.41-1,.75.44.94.84.75.47.61.42.54v5l.57,2,.43,1.5.63,1.26.37.74v2.17l.58.74.59.76.29.21.77.58.27.21v1.6l.39,1.17.44,1.06v.67h2.92l1.44.34,1.48.49h2.89l.51-.15.71.33.89.58,1,.64.89.58.29.19v1l-.66.83-.34,1.37h1v1.46l.62,1,.55.85h1l.67.83,1.83-.14,1.45.54,1.43.31,1-.08,1.08.2h1.33v-.83l.59-.32.81-.44.44-.24v-.67l.71-.27L303,106l1-.37,1.32-.49.76-.54.57-.55.94.56.39.46v.61l.81.45.69.38.93.23.87.42.53.35-.66,1-.6.14-1.33.31-.24,0,.43.73.31.53.39.65.54.93,1.16.66-.43.21.17.36.59.2.73.32.38.21.56.37-.16.75-.05.4Z"/>
    </g>
    <g class="region" id="Sumy">
        <path class="cls-1"
              d="M412.25,111.25h-.87l-.57.88-.81.37h-3.06v-.37l-1.38-.25-.81,1.37-.69.63h-.87l-.75.56-.44.75v.5l-.37.69-.57.81h-.81l-.87-1.19-.63.38-1.12.06-.69.12-.5.63-.63.62-.43.38-.69.69-.63.43-.62.44-.88,1.13h-1.25l-.56-.38v-.25l-.62-.06-.57-.19-1.12.19-.88.69-1.37,1.18-1.25.69h-2.06l-1.32.31h-.93l-.38-.31s-.25-.31-.44-.5a4.48,4.48,0,0,1-.43-.62s-.44-.32,0-.57l.43-.25.82-.87v-1.06l-.5-.57-.95-.87-.87-1-.37-.69-.44-.81s.38-.19,0-.5a1.36,1.36,0,0,1-.44-.75v-.94s.38-.06,0-.37a2.33,2.33,0,0,0-.81-.44s-.19-.75-.31-.69-.38-.31-.38-.31l-.81-.38s.06.69-.31,0a8.61,8.61,0,0,0-.63-1v-.37l-.56-.63s.06-.06,0-.37a5.27,5.27,0,0,1,0-1l0-.56a3.16,3.16,0,0,1,0-.94.9.9,0,0,0,0-.56.7.7,0,0,0,0-.38c-.05-.19-.68,0-.68,0l-.94-.08h-.87a1.73,1.73,0,0,1-.38.46,2,2,0,0,0-.75.56,7.81,7.81,0,0,1-.68.87l-.32.32-.5.5-.75.56s.07-.13-.31-.13h-.75a1.81,1.81,0,0,1-.69-.37,4.31,4.31,0,0,1-.5-.56,6.19,6.19,0,0,1-.43-1.07.68.68,0,0,0-.5-.43,2.46,2.46,0,0,1-.69,0,2.53,2.53,0,0,0-.75,0l-.31.25-.44.43s.31-.25-.31.32l-.63.56-.5.37-.31.19-.56.13-.88.5c-.37.25-1.12.68-1.12.68a1.28,1.28,0,0,1-.57-.18,7.34,7.34,0,0,0-1.06-.44l-.75-.5-1.69-.31-.5-.19-.81-.31-1.12.37-.57.19h-.75l-1.23-.13s-.08,0-.33-.25a6.13,6.13,0,0,1-.62-.87l-.38-.31-.5-.32-.5-.31h-.94l-.5.44-.31.25-.56.25-1.56.56h-.44l-.88-.12-.43-.32-.21-.48.28-.57.3-.59v-2.75h-.81l-.7-.47-.41-.45.25-.67.25-.83.31-.36.7-.46.41-.18.58-1v-.58l.42-.42.25-.25h-.58l-.53-.73-.14-.19-.1-.38-.15-.62.09-.48.14-.52.19-.5.37-.78.33-.8.14-.54.24-.38.37-.73.07-.24.17-.91v-.76l0-.81v-.81l0-.88v-.44h-.62l-.61-.3-.83-.12h-1l-.45-.16-.54-.63-.26-.37-.33-.3-.42-.37H337l-.33-1.08h-.84l.07-1.18.24-.73.53-1.18.22-.48.4-.7.41-.52.72-1.11.44-.78.27-1.18,0-.61-.25-.82-.44-.88-.61-.42-.48-.58h-.25v-1l.45-.54.39-.29.25-.42,1-.66.81-.67.38-.79.3-1,.24-1,.16-.65.16-.78.09-1.16-.14-1.12L341,59.5l-.12-1.08-.31-1.14-.14-.6-.14-.6-.26-.73-.54-.61-.86-.24-.27-.8-.07-.62.25-.92.17-.66L338.7,51l.08-.93.31-.85.4-.55.45-.79.23-.42.83-.92.83-.67.67-.21,1.21-.57.87-.47.64-.49.45-.59v-.92l.38-.42.37-.41-.34-.67.34-1,.57-.61.6-.4.76-.71.23-.26-.31-.26-.4-.49-.2-.33-.59-.33H346l-.48-.32-.6-.6-.06-.23-.27-.72-.34-1v-.52l.06-.85.19-.63.19-.3.39-.61.11-.42.06-.25.17-.67.16-.66.42-.65.27-.65.15-.54h.52l1-.33.64.44v.75l.67,1.06.38.38.68-.82.69-.75.44-.37,1.37-.69.82-.42L354,26h.75a7,7,0,0,0,1.13,0l.18-.06h.75l.5.39,1,1.23,1.07.75.25.69.37.88.38.37.56.94c.37.19.44.37.69.44a1.38,1.38,0,0,1,.68.37c.19.19-.25.06.19.19s.88.31,1.13.37.62.5.81.63.81.69.81.94.06-.07,0,.25a2.27,2.27,0,0,0-.12.62v.63a3.53,3.53,0,0,0,.25,1.31s-.13.62-.19.87-.06-.37-.06.25v1.07l.06.56s.44.81.56,1.12.63.63.69.82.25.18.37.43.25.25.69.88l.44.62a5.32,5.32,0,0,1,.62.82l.32.5,1.43,1.25.94.68.63.5.87.75.38.32.56.56.35.5v.44l.59.87s.25,1,.12,1.19a2.24,2.24,0,0,0-.19.62l-.52.63a3,3,0,0,0-1.41-.13,5.81,5.81,0,0,1-1.32.38l-1.68.25a3.11,3.11,0,0,0-1.25.75,2.08,2.08,0,0,1-.82.62l-.93.69.18,1.13a1.27,1.27,0,0,0,.25.37,7.44,7.44,0,0,1,.63,1.13l.31.31c.19.19.88,1,.88,1l.31.37.56.82.13.56a.88.88,0,0,1-.13.44c-.12.18-.12-.32-.12.18a11.92,11.92,0,0,0,.12,1.32l.19.81c.06.25.12.94.12.94v.43l-1,.69-.18.31.56.69.44.31.93.5,1.5.44.57.81-.44.69-.25,1.13a8.84,8.84,0,0,0-.81.62l-.44.38-.13,1,.75.75.5.18.88.07s.12-.07.69-.32a2.4,2.4,0,0,0,.93-.93,1.31,1.31,0,0,1,.32-.19c.25-.13,1,.19,1,.19l.75.43,1.18.13a.79.79,0,0,1,.38.12,4.92,4.92,0,0,0,.87.32l1.19.12.75-.19a1.68,1.68,0,0,1,.88,0c.56.13.68.63.81.69a5.12,5.12,0,0,1,.25,1.25l.62,1.06,1.25-.18.82-.13a3.62,3.62,0,0,1,.81-.31h.69l1.75-.31.43-.57.13-.5.87-.62.94.31h2.13l.68-.37.94.37.69.75s.06,1,.06,1.25a5.15,5.15,0,0,1-.06.63l-.19.75v.75l.44.75.25.5.5.56,1.12.56,1.07-.56a7.36,7.36,0,0,1,1.25-.69c.18,0,1.75.38,1.75.38l.06.62-.44.94s.19.25-.25.69a4.9,4.9,0,0,0-.81,1.37l.44,1.38s.87.81,1,1,.43.43.75.81,1.12,1.69,1.12,1.69l.5,1.5s.44.93.5,1.12.94,1.5.94,1.5c.25.31.25-.31.31.81a10.05,10.05,0,0,1,.06,1.13c0,.75-.06,1.75-.06,1.75l-.69.69-.37.5-.13.93-.37.25.37,1.32.44,1,.5,1.31.06,1.06.19,1.19.5.56.81.31.69.19,1,.44.56.44.94.87.25,1,.56,1.63,1.57.93Z"/>
    </g>
    <g class="region" id="Poltava">
        <path class="cls-1"
              d="M392.5,121.56l.06-.37v-.31h-1.25l-.56-.38v-.25l-1.19-.25-.59.1-.73.24-.68.54-.81.7-.79.61-.78.43-1.12.13h-1.18l-1.32.31h-.93l-.38-.31-.44-.5-.63-.9.63-.54.45-.48.37-.39v-1.06l-.5-.57-.95-.87-.87-1-.37-.69-.44-.81-.3-.88-.14-.87.16-.55-.51-.5-.46-.2-.31-.69-.38-.31-.55-.26-.4.14-.26-.41-.54-.85-.3-.71-.26-.66,0-1.56v-.94l0-.94h-.68l-.94-.08h-.87l-.38.46-.75.56-.38.51-.62.68-.5.5-.5.37-.56.06h-.75l-.69-.37-.5-.56-.43-1.07-.7-.41-.93-.05-.62.28-.75.75-1.13.93-1,.4-1.16.69-.68.41-.57-.18-.89-.38-.92-.56-.6-.11-.75-.14-.84-.25-.81-.31-.34.11-1.35.45-1.06,0-.92-.1-.81-.89-.52-.54-1-.63h-.75l-.69.44-.31.25-1.13.46-1,.35-.78,0-.84-.29-.34-.58-.42.75-.49.49-.76.76-.42.75-.8.87-.39.49-.31.39-.77.42-.76.61-.79.62-.93.52-.75.67-1.07.43-1,.34-1.29.23-1.07,0-1.45-.07-.29.07-.88.18-.58-.62-.92-.38-.55-.18-1.14-.24-.64-.08-.73-.33h-.94l-.58.33-.54.25-.55.25v.59l-.3.19-.62.41-.33.22-.95.18h-1.75l-.64.19-.37.21,0,.61.19.41.5.5-.18.14-.56.54-.26.32-.83.8-.5.36,1.33,1.16v1.72l1.84,1.18h1.33l1,2.27v2.5l1.33.5,1,.5.67,1.33.67.84,1.16.33v1.83l-1.16,1.5v2.84l2.16,1.83,1.5.5.84.33,1.83,1v1.67l1.17.5,1,1.5.83,1,1.33.5v1.5l1,.17v4.25l.67.91v3.5l.83.67v1l1.5,2,2,2v1.33l.84.5,1.16,1.17.67,1.66h.67l2,2,1.33,1.16,1,.17,1.83.17,1.25.83,1.42.17v3.83l.67.5,1.5.33,1.33.34,1.67.33.83.17,2.17-.17,1.66.17,1.5-.34,1.5-.33,1.84.83.83.34,1.17,1,1.66.5,1.34,1.33,1.5.17,2.16,2.13h4.42s.13-.57.31-1.13a1.63,1.63,0,0,0,.07-.94s-.19-1.18-.38-1.31a1.12,1.12,0,0,1-.31-.31,7.79,7.79,0,0,1,0-1.75,4.79,4.79,0,0,0,0-1.31v-1.5l.44-.57v-.75l.37-.81.56-.81.38-.81.87-.88.88-.31a15.85,15.85,0,0,1,2.5-1.38c1.75-.81.44-.37.44-.37l1.37-.5h1.06l1-.88.44-.37a8.83,8.83,0,0,0,.81-.81v-.25a4.74,4.74,0,0,1,.88-1,4.59,4.59,0,0,1,.94-.33,1.67,1.67,0,0,0,.75-.25c.18-.19.62-.06.62-.06a2.4,2.4,0,0,1,1,.5c.25.31.25,0,.25,0h4.31l.32-.5-.19-1.19s-1.38-.62-1.19-1.44,0-.68,0-.68l-.19-.82v-.43l.38-1.09.81-.79h0l.31-.37c.32-.38,0,0,.25-.07a1.83,1.83,0,0,1,.38-.06h.19c.18,0,.18.44.18.44l.38.5a4.31,4.31,0,0,0,.75.34,2.56,2.56,0,0,0,.5,0H401l.44,0a4.81,4.81,0,0,0,.94,0,3.14,3.14,0,0,1,.75,0,1.65,1.65,0,0,0,.87-.37,1.44,1.44,0,0,0,.5-.69c.06-.19.63-.63.75-.94a1.08,1.08,0,0,1,.31-.44s.13-.31.38-.87a6.92,6.92,0,0,1,.37-.75l.13-.88V152l-.19-.44-.37-.5-.13-1.12v-.81l1.13-.38.5-.62.68-.5a6.64,6.64,0,0,1,.19-.82c.13-.37,0-.31,0-.31l.13-.69.37-.87v-.44l-.37-.5v-.5l-.63-.75.63-.75v-1.19l-.38-.43-.81.56-.5.53-.81,0a2.1,2.1,0,0,1-.63,0c-.19-.06-.56-.75-.81-1.19s-1.06,0-1.06,0l-.75-.5-.5-.56v-.63l-.5-.5-.63-.37v-1.06l-.5-.88v-2h-3.12v-1h-1.5v-1.5h-2.75v-.5h-.63l-.62-1.5-.63-.87H390l.63-1.5,1-1.13.87-.62v-3.25"/>
    </g>
    <g class="region" id="Cherkasy">
        <path class="cls-1"
              d="M347.25,171.38v.87l-2.12,1.5-2.88,1H340.5l1.75-1.69-.25-1.68-1.5-.38h-2.87l-1.75-1-.75.75v2.63l-.63,1.37h-2.25A10.58,10.58,0,0,1,331,176a4.13,4.13,0,0,1-1.75.58,14.5,14.5,0,0,1-1.5,0h-.87L326,176l-.62-.5-.75-.87V173.3l-.88-.8-1-.12-1.25-.63h-.75l-.75.13-.75.25-.75.5-.87.67a3.09,3.09,0,0,0-1.13.7c-.25.38-1,1.25-1,1.25v1.33l-.62,1.55H312l-1.87,1.5h-2.25l-.75-.75-1-.63-.63-.5-.62-.12a4.93,4.93,0,0,1-1.38,0,11.84,11.84,0,0,0-1.87-.13c-.63.38-2,1.13-2,1.13l-.63.12s.38-.5,0,.38-1.62,3.5-1.62,3.5a1.21,1.21,0,0,1,0,.75l-.13.5-2,1.37-1,.63h-1.5l-1.37.75h-1s-1.25.37-1.63,0-2.62.16-2.62.16l-2.49-.54L283,186h-1s-2.17-.25-2.84-.25h-2l-2,.13-.81.12-2.57,1.88s.38.62,0,1a6.58,6.58,0,0,0-1.12,1.37c-.38.63-1,1.63-1,1.63s.75.75.75,1.25a3.88,3.88,0,0,1-.75,1.47H266.5l-1-.85L263,195.5l-.87.88-1.38,1h-1l-1.87.75-3.38.45H254l-.25-.45v-.55l-.17-.5.13-.38.13-.38.08-.24.18-.34.23-.41-.11-.73-.05-.36-.34-.58-.33-.33-.08-.34v-.91l-.09-.59-.39-.33-.37-.39-.74-.94-.58-.75-.67-.42-.41-.09-.34-.08-.09-.68-.07-.48.08-.75.11-.29-.19-.21-.36-.25-.48-.09-.75.17-.41-.17-.15-.28-.19-.38-.16-.75V182.5l-.47-.45-.15-.21-.5-.33-.47-.18-.25-.09v-.49l0-.59,0-.25.25-.24,0-.27-.17-.53-.13-.38-.45-.36-.41-.36-.3-.28-.24-.18-.18-.11-.33-.12h-.25v-.5l.19-.52.47-.57v-.41l-.45-.29-.36-.35-.52-.2-.25-.58-.07-.81v-.48l.4-.29.51-.42.45-.38.73-.69.31-.43.6-.6.39-.89.26-.51.17-.58.16-.59h.51l.64-.11h1.07l.77-.11.65-.17.48-.12.43-.53v-.56l-.09-.26.66-.43.55-.45.35-.5.37-.36.41.12.41.24h.31l.25-.31.36-.32.33-.29.48-.4.26-.15.07.35.41-.19.59-.5.5-.3.44-.35.43-.39.32.1h.16l.41.15.3.66.31.19.69.25.94.13.79.25,1,.16.75.34.94.62H265l.67-.28.25-.28-.05-.38-.09-.64-.28-.23.08-.12.36-.57.31-.52.31-.55.34-.53,0,.52h.5l.78,0H271l.24-.27.2-.21.52-.53.46-.19.58.1.27.12.43.36.24.41.12.21h5.1l.41-.41.43-.42.17-.37.32-.68.31-.65.36-.76.13-.27.21-.44.42-.39.46-.43.51-.48.56-.52.19-.18v-.67l.59-.35.72-.44.83-.56.51-.43,1-.88.3-.73.37-.93-.33-.1-.84-.25-.86-.26-.8-.23.7-.66.89-.82.6-.63.22-.93.08-.86,0-.63-.12-1.31-.18-1.15-.12-.78.15-.79.35-1.05.17-.5.42-.74.72-.77.78-.47.85-.53.36-.22h4.83l.74.49.66.44.6.41.72.33.8.36.65.31.94-.39,1.11-.65.47-.59.75-.86.53-.83.5-.77.58-.9.49-.78.33-.52.26-.83.1-.53.11-.8v-1.25l.13-.77.36-.79.3-.65.49-.36.8-.47.75-.43.23-.53.27-.64.05-.52.05-.49.07-.65.16-.67.21-.72.13-.45.5-.27.47-.26.36-.2.5-.27.46.4.59.52.28.24v1.72l.4.25.6.39.54.35.3.19h1.33l.37.84.27.61.36.82v2.5l.75.28.91.38.67.34.2.4.36.72.46.65.32.4.61.17.55.16V133l-.17.4-.47.61-.36.46-.16.21v2.84l.55.47.61.51.54.46.34.28.58.26.59.2.65.23.81.35.56.3.7.38.4.22v1.67l.61.26.56.24.37.56.48.73.59.74.39.47.57.21.76.29v1.5l.51.08.49.09v4.25l.23.31.33.45.11.15v3.5l.4.32.28.23.15.12v1l.28.37.27.36.38.51.4.53.58.64.23.23.22.22.39.39.37.37.38.38v1.33l.19.12.31.18.34.2.24.24.34.35.42.41.16.17.11.26.27.69.19.45.1.26h.67l.21.21.34.35.33.32.42.43.31.31.28.28.3.28.51.44.31.27.26.23.42.11.54.09.56.06.62.06.43,0,.42.09.62.41-.34.57h-.21Z"/>
    </g>
    <g class="region" id="Mykolayiv">
        <path class="cls-1"
              d="M343.42,221l.33.33.75.75a6.44,6.44,0,0,1,.25,1.17c0,.33-.08,1.25-.08,1.25a8.67,8.67,0,0,0-.34,1.08c-.16.67-.25,1.08-.25,1.08a4,4,0,0,1,.59.75,1.92,1.92,0,0,1-.17,1.34,4.09,4.09,0,0,1-.58.75,3.9,3.9,0,0,0-1,.25,2.35,2.35,0,0,0-.59.41l-.83.75s-.17,1.17-.17,1.42a2.5,2.5,0,0,0,.42.83l.75,1,.5.75.83.67.67.5.58,1-.08.83.33.67a5,5,0,0,0,.59,1.17,1.23,1.23,0,0,1,.25.75l-.25,1.08-.25.83h-.42l-.67.17-.91-.25.08.42s.58,1,.67,1.25a2.37,2.37,0,0,0,.58.66l1,.75v1l.08,1.25v1.17s.42,2,.42,2.25a8.57,8.57,0,0,1-.33,1.25l-1.25,1.33-1.42.42a4.34,4.34,0,0,1-1.17.42,4.85,4.85,0,0,0-.75.08l-1.16.75c-.5.33-.59.58-.59.58l.17.92.42.58a7.38,7.38,0,0,1,1.25.5l1.41.84a8.75,8.75,0,0,0,.92.91c.25.17.92.75,1.25.92s-.25,1.17-.25,1.17a5.89,5.89,0,0,1-1.42.33c-.5,0,0,0-.16.33a7.15,7.15,0,0,0-.34,1.25,4.77,4.77,0,0,1-.66,1.5c-.42.5-.34.34-.67.5l-1,.5a4.74,4.74,0,0,0-.67-.08c-.25,0-.58-.33-.58-.33l-.75.33.25.5.75.25.83.42-.75,1.41-.75,1-1.58.75-1.58-.16a5.63,5.63,0,0,1-1.67-1l-.83-.67-.75-.33-1.34.25-.83.16-1.25.5-.17.34-1.58.25h-2.17l-1.41,1.91a2.32,2.32,0,0,1-.59-.08c-.25-.08-.91-.42-.91-.42l-.92-.33-.75-.17-.67,1-1,1.5-1.41.92s-.59-.08-.92-.08a7.39,7.39,0,0,1-1.08-.17l-1,.08-.34.67-.25-.5-.08-.5a1.83,1.83,0,0,0-.83-1.08,7.6,7.6,0,0,1-.75-.67s-.92-.75-1.25-1a5.39,5.39,0,0,1-.75-.75l-.34-.33-.41.33-.75.5-.59.5-.33,1.08.08.67.59.75.83.42a2.4,2.4,0,0,1,.67.75l.25.83v.67l-.25,1-.09,1.41-1.5.5h-1.91a5.67,5.67,0,0,1-1-.25,4,4,0,0,1-.92-.66,1,1,0,0,0-.42-.34l-.83-.08-.67.08-.5,1.25h-1.58l-.75-.66.83-1.17.84-.5.08-.83a5.42,5.42,0,0,1,.08-1,5.67,5.67,0,0,0,.17-.75l.5-.84.25-.75.17-.58.08-.67a5.79,5.79,0,0,0-.83-.5,2.06,2.06,0,0,0-1.75.25c-1,.5-.42.59-.42.59l-.08.25a2,2,0,0,1-.5.58l-1.09.17-1.08-.34-.42.17-.16.67.25.58.33.42a4.93,4.93,0,0,1,.33,1.25,5.94,5.94,0,0,1-.16,1.08l-.34,1.17-.08.5-.75.91-.42.67a1.69,1.69,0,0,1-1.08.83,3.41,3.41,0,0,1-1.08,0H292a5.94,5.94,0,0,1-1.25-.58L289,279.5l-.5-.59-.17-1,.09-1.58.08-1.17.33-.41.42-.75v-.84l.17-.58-.5-1.67a7.43,7.43,0,0,1-1.34-1.41c-.25-.5-.41.16-.66,0s-.75-.5-1.17-.84-.33-.41-.33-.41a4.46,4.46,0,0,1-1.34-1.75c-.58-1.25,0,0,.17-.25s.67-.42.92-.59.33-.41.75-.83a1.68,1.68,0,0,1,1.08-.58,1.34,1.34,0,0,1,.92,0h2.66l.42-.84c.42-.83.25,0,.25,0l.25-1.08v-.67a1.27,1.27,0,0,1,.25-.58,13.91,13.91,0,0,0,.75-1.33c.17-.42,0-.42,0-.75a2.13,2.13,0,0,0-.33-.84s-.42-.33-.67-.58-1.25-1-1.25-1l-1.25-.5c-1.25-.5-.83,0-.83,0l-.92-1H287l-.17-.92a1.89,1.89,0,0,0,.67-.66c.33-.5,0,0,.08-.34a.9.9,0,0,1,.42-.5l.25-.66-.83-.5h-6.59s-.75-.92-.75-1.17-.16-.5-.33-1.33-.59-.42-.59-.42-.41-1-.49-1.33-.25-.34-.25-.59a8.71,8.71,0,0,0-.25-1.16s.08-1,.08-1.34.33-.75.5-1.08.41-1,.41-1,0-.67,0-1.5v-2.17l-1.41-1.75-.25-.66-1.33-.92-.17.42-1.67,1.16-.75-.5s-1.16-.66-1.58-.46-.33,0-.33,0h-1.5a16.64,16.64,0,0,0-2.17,0,2.46,2.46,0,0,1-.92,0l-.83-.58a3.64,3.64,0,0,0-.58-.92c-.34-.33.08-.91.08-.91l-.08-.5-.09-1.33.17-1s-.42-1-.5-1.25a8.4,8.4,0,0,1-.17-.92l-.5-.58-1.33-.92-.92-1.42.09-1.25a4.18,4.18,0,0,1,.41-1.25c.25-.33,0-.75-.25-1.25a2,2,0,0,0-.66-.75l-.42-.16s-.58-.92-.92-1.34a8.15,8.15,0,0,1-.58-.83l-.58-.84.41-1.33,1.17-.58.92-1.33.37-.26.46-.33-.5-.66-.33-.34s.58-.16,1.25-.41a6.83,6.83,0,0,1,1.33-.34l1.5-.33,1.17.08,1.33.17.67-.17H271v.25l.75.17.42-.42.58-.41.83-.34h.67l.83.09,1.09.16.66.34H278l1.16-.42v.25h.92l.42-.08.42-.25.83-.5.92-.42,1-.92h1.78l.66.17h1.34a1.42,1.42,0,0,1,.83.42c.25.33,1.08.41,1.08.41s-.25.67,0,.92,0,.75,0,.75v.42l.42.58.5.67h.67l2.16-.17h1c.5,0,1.09.17,1.59.17a2.64,2.64,0,0,0,.91-.17l1,.25V215l.67.67v-.25l.67-.67.91-.42.42-.25a7.42,7.42,0,0,0,1.42-.5c.41-.25.41-.16.41-.16a2.65,2.65,0,0,1,.84.16,2.4,2.4,0,0,0,.82.17l.59.08.67.42.67.92-.09.83-.58.75-.67.33s-.66.67-.58,1a1.57,1.57,0,0,0,.5.67l.42.67.5,1.08a9.53,9.53,0,0,0,1.58,1.08,2.47,2.47,0,0,0,.83.25s.17.59.5.75l.34.17.33.58-.58.59-.59,1.16.5.75v.84l.84.33.66.17h1.84l1,.16.75.09,1.16.08v.75l.59.5.83.42v.5h.58l.75-.5a7.43,7.43,0,0,1,1.17-.92c.67-.42,0-.58,0-.58l.5-.75.5-.5.75-.25,1.58-.25,1.75.75.5.25,1,.41.84.67,1.5.33.91.34,1-.75,1.84-.42a5.35,5.35,0,0,1,1.16-.67c.5-.16,0-.33,0-.33a3.43,3.43,0,0,1,.5-1,1,1,0,0,0,0-1,1.9,1.9,0,0,1,.43-.92c.34-.33.07-1.16.07-1.16a3.57,3.57,0,0,1,0-1.34,1.21,1.21,0,0,0,0-.83l.34-.5v-.42l.5-.5.41-.5h.42s-.42,0,1.17.09,0,.33,0,.33a1,1,0,0,0,.75,0,.58.58,0,0,1,.58,0s.42-.33,1-.75.67-.42.67-.42.66-.58,1.08-.91a1.42,1.42,0,0,0,.5-.59l.58.25,1.17.34h1.08l-.25,1-.2,1.45.25,1.3Z"/>
    </g>
    <g class="region" id="Kropivnitskiy">
        <path class="cls-1"
              d="M366.25,180.67l-.67,2h-3.41l-.34-1h-2.25l-1.25,1h-1v1.29l.92,1,.42.5,1,.33,1.33.5h1.17l1.08.42h1v.66s.25.42,0,.59a8.75,8.75,0,0,0-.92.91,1.91,1.91,0,0,1-.75.75,15,15,0,0,0-1.58.75c-.42.25-1.08.59-1.5.84s-1.75,1.16-1.75,1.16l-2.08.75h-.84l-1.16,1.52s-.25-.27,0,.4a16.75,16.75,0,0,1,.5,2.17l1.16,1.41.34.84.58,1.16-.33,1.09-.09.91.67.75v1.34l-.5,1.16s-1.08,1-1.25,1.25a10.2,10.2,0,0,1-1.19,1.17c-.48.42-1.31,1.25-1.56,1.5a11.75,11.75,0,0,1-1.17.92,10,10,0,0,0-1.91,1.41,18.21,18.21,0,0,1-2,1.75,20.34,20.34,0,0,0-1.84,1.75l-.75.67-1,.42h-.91l-1.14-.28-.78-.31-.69.74-.89.76-.89.58-.94.53-.63-.06-.54-.21-1-.06-.55,0-.41.5-.4.4-.1.35-.2.47-.14.2v.83l-.07.61,0,.44.12.68,0,.19-.06.4-.25.35-.23.52v.82l-.24.69-.25.53-.07.19.21.21-.34.18-.65.35-.5.29-.67.15-.57.13-.48.11-.33.25-.5.38-.17.12-.71-.26-.72-.19-.71-.16-.46-.21-.53-.42-.63-.31-.49-.2-.5-.25-.37-.16-.44-.19-.45-.19-.49-.21-.63.1-.76.12-.57.16-.46.21-.31.31-.16.19-.29.44-.11.15.22.22,0,.23-.24.2-.59.42-.58.5-.52.35-.34.15h-.47v-.5l-.16-.08-.36-.18-.24-.12-.19-.14-.23-.19-.24-.21v-.75l-.38,0-.39,0-.48,0-.34,0-.4-.05-.3,0-.35-.06-.19,0h-1.92l-.33-.08-.33-.09-.24-.09-.22-.09-.38-.15v-.84l-.1-.15-.11-.16-.1-.16-.12-.18-.07-.1.18-.34.35-.7.06-.12.45-.46.13-.13-.14-.23-.19-.35-.34-.17-.33-.36-.17-.39-.42-.09-.41-.16-.73-.43-.38-.27-.33-.26-.33-.53-.15-.33-.27-.51-.31-.5-.33-.33-.17-.34.15-.46.3-.39.46-.31.47-.34.23-.29.25-.51.06-.61-.28-.38-.28-.38-.31-.28-.65-.32-.41-.06-.44-.05-.65-.2-.57-.08-.41.16-.52.23-.72.23-.6.29-.37.18-.54.24-.37.37-.3.3v.25l-.4-.4-.27-.27v-1.25l-.47-.12-.53-.13-.42.12-.49,0-.65-.06-.94-.11h-.7l-.66,0-.72.06-.85.06-.71,0h-.19l-.24-.32-.26-.35-.22-.3-.2-.28V212l.1-.29,0-.35-.16-.32v-.33l.09-.38-.43-.08-.43-.16-.22-.17-.43-.3-.57-.12h-1.17l-.66-.17h-1.78l-.35.34-.37.34-.25.24-.57.26-.85.46-.46.27-.4.2-.61.06h-.62l-.12-.2-.34.12-.55.19-.46.06h-.6l-.43-.09-.81-.29-.77-.12-.61-.06-.89,0-.36.15-.56.25-.49.35-.42.42-.45-.1-.3-.07v-.25h-1.83l-.67.17-.83-.1-.8-.09-.87-.06-1.26.28-1.57.39-1.25.41-1.42,0-1.08.19-2.92.08-1-.5-.67-.58-.66-1.25-.67-1.17.23-.34.27-.41-.18-.19-.15-.59-.17-.67v-.64l-.75-.08-.64-.44-.78-.48-1.33-.25-.5-.58-.75-.33-.5-.75-.33-.59v-.5l.33-.5.56-.77.61-1h.66l.75.34.34.5,1.33.38.82-.16.7-.28.9-.53.28-.28.36-.43.44-.62v-.5l-.92-.25.61-.24,1.06-.14.86-.12,1.15-.39,1-.39h.69l.6-.21.87-.64.87-.81.9-.7,1-.72.78-.55.65.55.6.3h2.88l.32-.47.21-.36.22-.64-.12-.41-.63-.84.5-.82.36-.58.62-.91.78-1-.14-.73.63-.46.83-.61,1.11-.81.81-.12,1.68-.11,1.44,0h1.12l2,.17L283,186l1.81.51,1.18.25,1-.14.93-.12h.51l.75.27.55,0,.64-.13h1l.8-.44.57-.31h1.5l1-.63,1-.68,1-.69.13-.5.05-.51-.05-.24.28-.61.32-.68.21-.44.21-.45.31-.67.29-.65.15-.41.48-.09.66-.37.51-.29.6-.34.23-.13h.5l.66,0,.89.12.45,0,.57,0,.8.1.63.5.5.32.5.31.54.54.21.21h2.25l.35-.29.64-.51.55-.44.33-.26h2.88l.08-.21.32-.81.22-.65v-1.21l.56-.67.44-.58.91-.61L318,173l.46-.35,1.1-.62,1.15-.26h.75l.75.38.5.25.48.05.52.07.37.34.51.46v1.33l.75.87.62.5.6.4.28.18h.87l.92,0,.58,0,.8-.16.74-.29.74-.6.52-.56.2-.22h2.25l.55-1.21.08-.38v-2.41l.25-.25.5-.5.72.41.68.39.35.2h2.87l1,.25.28.07.32.64.16,1.1-.41.4-.49.47-.51.49-.34.33h1.75l.71-.25,1.22-.42.76-.27.89-.56.71-.5.61-.43.1-.4v-.54l.46.16.06-.11.28-.46.53.36.64.08.78.09v3.83l.67.5,1.12.25.62.15,1.62.37.75.15L356,177l.91-.07,1.26-.1,1,.1.65.07,1.11-.25.92-.2,1-.22,1,.46,1.35.58.61.38.61.51,1,.44v.68l-.86.81Z"/>
    </g>
    <g class="region" id="Odessa">
        <path class="cls-1"
              d="M287.63,279.88h-1.75l-1.5.82-1.38.93h-2.5l-1.34.5h-1.41l-1.37,1.62-.63,1.88v5.5l-.87.62h-.63l-.62,1.88v2.12s.75,0,0,.75l-.75.75a12,12,0,0,0-1.38,1c-.37.38-1.25,1.38-1.25,1.38l-.87,1.12h-1.13V300l-.87-.62h-.75a3.48,3.48,0,0,0-1,.62,9.18,9.18,0,0,1-.88.75v2.13l1.63,1.12.37.75-.37.88-.75,1.12-.88,1.13-1.37.75L262,309.88v2.5a14.33,14.33,0,0,1-1.62.62c-.5.13-.05.38-1,.75l-.92.38h-1.25v-.5l-1.5.5V315h-1.12l-.88-.87h-.87s-.63-.25-1.13.87-.87,1.88-.87,1.88V318l-.63.75h-1.12s.62-1.62-.63,0l-1.25,1.63.63,1.5.62.75s.38,0-.12.62-1.13,1.38-1.13,1.38a1.85,1.85,0,0,1-1.25,0l-.62-.25-2-1.88v-1.87s-1-4.25-1.38-4l-.37.25a3.15,3.15,0,0,0-.63,1.5c-.25,1.12.25,1.87,0,2.25s.5.87.5,1.25a11.61,11.61,0,0,1-.57,1.87v3a7.87,7.87,0,0,0,1.45,1.38l.5.25.12,2-.37,1L244,332.5a6.47,6.47,0,0,1,1.25,1.88c.25.62.75,1.25.75,1.62a14.41,14.41,0,0,1,.25,1.75c0,.88-1,1.25-1,1.25l-1.12,1.63-1,1.75h-2.2l.7-3-.7-1.75-1.3-1.88-1.5-1.87-1.5-.75a8.84,8.84,0,0,0-1.5-.25c-.5,0-2.13-.25-2.13-.25s-1.37-.13-1.87-.13h-1.5a8.84,8.84,0,0,0-1.5.25s-1.25.25-1.5.75-1.13.75-1.63,1.25a9.78,9.78,0,0,1-1.62,1.13s-1.13.87-1.5,1.25a4.14,4.14,0,0,1-1.5,1.25c-1,.5-1.88,1-1.88,1l-.87-.75v-1s.75-.88,0-1.38l-.75-.5-.75.5v.63l-1.25.75-.88,2.12a3.9,3.9,0,0,1,.75,1.63c0,.62-.75,1-.75,1h-1.12L211.75,341l-1-.37a5.93,5.93,0,0,0-1-.38c-.5-.12-1.37-.37-1.37-.37l-.88-.5-1.25-.63L205,338l-1-.5-.62-.5-1.13-.87-.75-.63-.87-1.12v-.88l-1-.75v-1l-.88-.87-.75-1v-1l1.13-1.25,1.75.12s1.75.25,2.37.38a9.63,9.63,0,0,0,1.88,0h1l.75-1.13-.13-1.75-.12-.87-.38-1.13.13-2,.62-1.37.63-.63,1.12-1,.75-.75.75-.87,1.13-.75,1.25-.88,1.12-.75.88-1.5.12-.75.5-2.12.88-1.88,1-.37h1.75l1.87-1,.75-.63.38-1.12a4.85,4.85,0,0,1,.25-1.38c.25-.75.62-1.62.62-1.62l.25-.75.5-1,.25-2.25-.87-1.38-.75-1.12a1.21,1.21,0,0,0,0-1,23,23,0,0,1-.75-2.25l-.38-1.38-.12-1.62s.5-1,.62-1.38.5-1.75.5-1.75l1.63-.12,2.12-1.88,1.25.25,2.63,1.25v.75l.62,2.13.88.25,2.87-1.38a17.22,17.22,0,0,1,2-.87c.5-.13,1.25-.38,1.38,0s1.12,2.12,1.12,2.12a4,4,0,0,1,.88,1c.37.63,3.43,1.5,3.43,1.5v-1.25a6.58,6.58,0,0,1,.82-1.75l.37-.37,3-.5.63,1.62,1.37,1.38,1.63.25,3-.38,2.12.38.88-.25-.63-1.25-1.5-1.25-1-.63-.5-.62-1.62-.75h-.88l-.75-1.63.5-.62s.63-1,1-1.13l.38-.12,1.12-.88-1-1.37.63-2,.37-1.75-.37-1-.63-1-.12-1.5a6.31,6.31,0,0,0-.5-1.13,10.55,10.55,0,0,0-1.38-1.25L248.63,269h-3.25l-.75-1.12s-.25-1-.75-1.13a14.54,14.54,0,0,0-1.63-.62h-1.5a4.45,4.45,0,0,1-.75-1.38v-1.5l1-.75.88-1.12V260h-1.63l-.37-1.62-.13-.88v-.62l-.12-1.25v-1.75s-.13-.75.25-.75h.87l.5-1a6.06,6.06,0,0,1,0-1.5,7.54,7.54,0,0,0,.13-1.5l-.88-1h-2.25a6.25,6.25,0,0,1-.5,1.25,6.55,6.55,0,0,0-.5,1s.38.37-.75-.13a14,14,0,0,1-1.87-1V247.5l-1-1L232.5,245h-.75l-1.12-1.39H229l-.87-1.25-.5-1.75-.5-2.63.62-1.37,1-1.13,1-1.12.63-1.75-.13-.88.13-2.08H231a9.08,9.08,0,0,1-.12-1.42,3.17,3.17,0,0,0-.5-1.5l.25-2.5a4.9,4.9,0,0,0-.63-1.37V221.5a8.35,8.35,0,0,0-.87-1.25l-1.5-1.5h-.88l-.75.63a1.38,1.38,0,0,1-.5.75c-.37.25-1.37,1-1.37,1a4.1,4.1,0,0,1-1.63-.38l-.75-.37-.58-2.72,2.08-.92.5-.75,1.33-1.68.5-1.9h1l1.34.5,1.75,1.58,2.24.36,1.9.49.77.07.75-.67.42-.75,1.5-.08,1.33.75,1,.67h.67l1.26.07,1.49-.32,1-.59.33-1.08.42-.75v-1l.5-.75,1.17-.75h2.25l1.5.75.83.08.75-.5.67-.66,1.08-.25.43.75.62,1.14,1.95,1.61,1.75-.05,1.17,0,1.08-.19,1.42,0,.37,1.33-.37.26-.43.62-.84.88-.93.79-.3.95.58.84.58.83.62.87.93.8.45.58.34.82-.26.79-.24.89-.09,1.25.42.64.88,1,.95.66.5.58.17.92.33.84.17.41-.17,1,.07,1,.1.84-.21.64.35.55.62.83,1.07.43,1.34-.06,1.25.06h1.5l1.18.12,1.12.6.36.24.67-.46,1-.7.17-.42.8.55.66.72.71,1,.65.81.17,1.63v1.67l-.41,1.58-.39.68L278.2,245l.08.93.39,1.3.49.83.39.47.31.92.35,1.16.62.87h6.59l.83.5-.25.66-.5.84-.67.66.17.92.81.61,1.19.39,1.63.79.87.71.43.39.57,1v.75l-.27.53-.48.8-.25.58,0,.83-.46.92-.42.84H287l-1.08.58-1.48.73-.19.69-.17.25.18.34.58.86.76.83,1,.74.34.23.49-.19.31.4.6.66.6.54.3,1,.2.65-.17.58v.47l-.28.88-.49.93-.06.89-.07,1.17.09,1-.31.72Z"/>
    </g>
    <g class="region" id="Kharkiv">
        <path class="cls-1"
              d="M481.94,126.06l-.22.82-1,.5.59,1v1.12l-.59.44-.62.5-.5.69.56.93.59.75.41.44-.06.69-.07.69a1,1,0,0,1-.28.5c-.22.18,0-.25-.22.18a10.67,10.67,0,0,0-.37,1.38,6.74,6.74,0,0,1-.56,1.25s.37.81.43,1,.32.75.32.75l-.13.69.53,1-.47.68-.68,1v1.13l-.57.56-.43.38a2.15,2.15,0,0,0,0,.93c.12.25-.18,1.19-.06,1.38s-.19-.19.12.19l.69.81-.07,1-.06.37a3,3,0,0,0,.5,1.19,11.09,11.09,0,0,1,.81,1.13l-.06.5,1.44,1.62.87.94,1.13.94s-.06-.13.31.43.69.75.81,1.07.75,1.56.75,1.56v1.31s-.12.38,0,.56a2.91,2.91,0,0,1,0,1.07l.06.68v.25s-.24-.62-.49,0-.5,1.19-.5,1.19-.07.13.12.38.92.56.87.93a1.34,1.34,0,0,0,.26.82s.5.37,0,.5-.94.31-1.13.31a1.11,1.11,0,0,0-.81.31l-.63.81h-.62a3.88,3.88,0,0,0-.75.57,2,2,0,0,1-.63.43,3.45,3.45,0,0,1-.87,0c-.25-.06-.94.25-1.13,0a1.1,1.1,0,0,0-.75-.28,10.22,10.22,0,0,1-1.06-.18,2.45,2.45,0,0,1-.75-.44,1.62,1.62,0,0,0-.5-.69c-.37-.31-.56-.81-.87-.87s-.69-.19-.69-.19a2.7,2.7,0,0,1-.81-.38c-.19-.18-.63-.68-.63-.68a5,5,0,0,1,.31-1.19c.19-.31,1.13-.06.25-.75l-.87-.69-.44.25-.62.38a1.91,1.91,0,0,1-.38.18l-.19.07s0,.12-.43.18-1.19.19-1.38.19a5.18,5.18,0,0,1-.81-.19v-.68l-.63-.88v-.31a2.28,2.28,0,0,0-.68,0l-.32.06-.87.63-.81.93-.88,1.38v2l-1.06.94-.56.93-.32.63-.5.62-.75.88-1.12,1.12s.19-.25-.44.44l-.62.69-1.44,1.06s.81-.44,0,.25a17.91,17.91,0,0,0-1.44,1.38l-.75.5-.62-.38-.5-.44-.38-.37-.94.06-.5.06-.43.19-.57.56-.43.32-.82.31h-.25l-.56-.38-.56-.12-.88-.31-1,.81.38.62.19.57.56.87.12.38.13.31a2.31,2.31,0,0,0-.06.44,2.27,2.27,0,0,1-.38.68l.75.82.06.56.19,1.19-.31.5-1.06.31a2.91,2.91,0,0,0-1.07,0c-.18.12-1.12.87-1.12.87l-.77-.39-.84-.21a5.75,5.75,0,0,0-.62-.08h-.17v-.55l-.75-.41-.33-.5-.33-.09-.42.55-.29.45-.25.34-.38.46a1.5,1.5,0,0,1,0,.43c0,.11-.37.65-.37.65l-.42.42-.33.5-.38.66v.34l-.54.29-.58.41s-.38.29-.54.21a2.91,2.91,0,0,1-.5-.41,1.91,1.91,0,0,1-.25-.5V187l.29-.58a2.76,2.76,0,0,0-.29-.59,2.37,2.37,0,0,1-.3-.41,2.94,2.94,0,0,0,.21-.59c0-.12-.33-.41-.66-.58a7.22,7.22,0,0,0-.84-.33l-.37-.34-.34-.41-.25-.21-.29-.33-.33-.38-.42-.37-.37-.21-.34-.25-.33-.59v-.5a2.77,2.77,0,0,1,0-.58c0-.21-.08-.33,0-.5s-.23-.58-.4-.62-.75-.3-.75-.3-.41-.41-.5-.54a1.06,1.06,0,0,0-.45-.37,10.13,10.13,0,0,1-.88-.63,3.05,3.05,0,0,1-.58-.37c-.17-.17-.54-.5-.54-.5s-.34-.17-.38-.29l-.25-.85V173.2l-.25-.67-.33-.58-.38-.63L426,171s-.42-.58-.5-.71l-.42-.67-.33.25s-.67.46-.83.59-.59.37-.59.37l-.58.54a1.94,1.94,0,0,1-.58.46,4.54,4.54,0,0,0-.71.46s0,.13-.29.25a1.63,1.63,0,0,1-.67.17,6.5,6.5,0,0,1-.71-.17l-.79-.17a.6.6,0,0,1-.29-.08c-.13-.08-.38-.17-.54-.25a6.89,6.89,0,0,1-.59-.37s0,0-.2,0a7.9,7.9,0,0,1-.8-.08c-.33,0-.91-.13-1.12-.17l-.63-.12-.79-.13-.62-.12-.54,0-.59-.09h-.91a5.85,5.85,0,0,1-.88,0c-.21,0-.75-.21-.75-.21l-.5-.41-.5-.42-.75-1-.79-.71-.71-.62-.46-.38-.79-.79-.67-.58s-.41-.34-.58-.46-.62-.54-.62-.54l-.88-.38a9.1,9.1,0,0,0-.92-.25,5.37,5.37,0,0,0-.79-.12,3.56,3.56,0,0,1-1.08-.13c-.42-.12-.88-.21-1.08-.25a10.49,10.49,0,0,1-1-.37l-.13-.77v-.3l-.39-.3-.4-.29-.36-.41-.12-.39,0-.17.08-.48-.1-.42-.11-.34-.06-.41v-.28l.19-.54.19-.55.33-.32.48-.47.21-.25.25-.29.67,0,.3.6.39.41.62.27h2l.87,0,.6,0,.41-.1.46-.27.42-.5.08-.19.37-.45.38-.49.31-.44.3-.7.27-.59.18-.33.1-.67,0-.77-.35-.65-.23-.46-.07-.63,0-.68v-.45l.65-.22.48-.16.27-.34.42-.42.34-.25.22-.45.12-.48.05-.59.08-.41.2-.49.17-.38v-.44l-.37-.5v-.5l-.3-.35-.33-.4.63-.75v-1.19l-.38-.43-.29.2-.4.27-.49.47-.13.15-.35,0h-.71l-.38,0-.41-.49-.24-.42-.16-.28-.21-.16h-.37l-.33.1-.23,0-.21-.14-.46-.31-.28-.31-.22-.25v-.63l-.15-.14-.28-.28-.23-.17-.3-.18-.17-.1v-1.06l-.31-.55-.19-.33v-2h-3.12v-1h-1.5v-1.5h-2.75v-.5h-.63l-.26-.62-.16-.39-.2-.49-.35-.49-.28-.38H390l.1-.24.18-.43.1-.25.15-.35.23-.39.48-.54.39-.43.4-.29.47-.33v-2.19l.06-2.06.48-.62.4-.51.62-.44.72-.53.33-.33.57-.52.76-.74.4-.51.31-.16.69-.09.6,0h.31l.34-.21.17-.1h.3l0,.22.45.61.21.29h.81l.23-.32.34-.49.26-.49.11-.2v-.5l.28-.47.38-.45.39-.29.51-.1h.63l.08-.2.48-.43.29-.48.24-.42.28-.47.33.06.46.08.59.11v.37h2.75l.63-.15.49-.22.16-.25.2-.32.21-.31h.4l.8-.1.3-.09.4-.37.56-.41,1-.44.38-.56.66-.72,1.12-.5.75-.81,1.38-.44h2.68l1.69.32,1.88.18.68.32.69,1.37.94.69,1.31,1.44.94.75,1.44.56h1a1.83,1.83,0,0,0,.37-.38,9.14,9.14,0,0,1,1.06-.81l.94-.25.94.5,1.06.88.13.62,2,1.75,1.5.25.68-.5.25-.81.44-.81.69-.88.94-.81,1.37-1,1.19-.5,1.12-.63,1.32-.43,1.75-.63.93.19,1.75.06c.19,0,1.38-.5,1.88-.56a5,5,0,0,0,1.25-.44s.56-.87.81-1.19a13.92,13.92,0,0,0,.81-1.39l.5-.42.5-.56.94-.81h1.06l.82.56s.68.25.81.5.75,1.56.81,1.75.13,1.19.13,1.19l1.18.37,1.25.44c.19.06.69.31,1,.44s1,1.18.82,1.43a7.52,7.52,0,0,0-.5,1.38l.5,1.5c.06.19,1.06,1,1.25,1.25a7,7,0,0,1,.43,1.37l1.07.57.62.68,1.13.88,1.43.81,1.19.56,2,.38,1.19,1.44,1.19,1.93,1.31,1.32s1.19,1.25,1.06,1Z"/>
    </g>
    <g class="region" id="Dnepr">
        <path class="cls-1"
              d="M452.88,190.63V192l-.44,1.06.44,1.54v1.21l.5.82.87.75.75.37.75,1,.38.63v2.75s-.13.93-.38,1.06-.81.5-.81.5a2.39,2.39,0,0,0,.12.81c.13.19-.37-.44.38.63a2.84,2.84,0,0,1,.69,1.68v.75c0,.63.12.63-.32,1.07s-.87.81-1.18.81-.88.19-1.19,0-1.31-.69-1.31-.69a5.76,5.76,0,0,0-.82-.87,11.9,11.9,0,0,0-1.18-.88,5.25,5.25,0,0,0-.69.19c-.38.12-.69,0-1,.19s-.81.5-.81.5-.25-.19-.5.31a5.63,5.63,0,0,0-.44,1.33c-.06.29.06.54,0,1a1.27,1.27,0,0,0,.31,1.06c.19.13-.19-.5.19.13s.44.94.56,1.12a4.32,4.32,0,0,0,.63.57s.75.5.5.93l-.25.44s.12-.44-.32,0-.62.44-.93.81-.71.82-.71.82l-1.36,1.25-.75.87-.62.56-1.19-.5a1.27,1.27,0,0,0-.75.13,6.58,6.58,0,0,0-1.12.75,15,15,0,0,1-1.13,1.06c-.19.13-.87-.06-1.06,0s-.5-.25-.5-.25l-.88-.75-.56-.75a2,2,0,0,0-.81-.25c-.38,0-.13-.37-.38,0l-.25.38s-.37.31-.62.56a1.72,1.72,0,0,1-.63.44,1,1,0,0,1-.62.12l-.25-.06-.5-.5v-1.25s.37-.25.69-.5a2.47,2.47,0,0,0,.5-.56,2.46,2.46,0,0,1-.38-.5c-.12-.25-.31-.32-.37-.63s-.07-.69-.44-.94-.69-.25-.88-.5a4.52,4.52,0,0,1-.31-1.12c-.06-.19.31-.69,0-.94s-.37-1-.37-1-.13-.44-.38-.44-.5.5-.69.44-.68-.06-.75-.25.13-.56,0-.87.07-.38-.31-1,.19-.57-.37-.63-.75-.12-1.07-.12-.37-.07-.68.18a2.09,2.09,0,0,1-1,.44c-.38.06-.57-.06-.82.31s-.37.57-.81.44a6.94,6.94,0,0,1-1.06-.44.53.53,0,0,1-.38-.25,2.94,2.94,0,0,0-.68-.62,5.55,5.55,0,0,0-1.19-.38l-.94-.18h-.75c-.25,0-.25.25-.75.43s-.62.38-1.25.69a14.75,14.75,0,0,0-1.31.75,9,9,0,0,1-1.5.88c-.19,0-.44-.5-.75-.69l-1.19-.75h-.94l-1,.5-.62-.5-.63-.25-1-.44-2.06-.19-1.25.19-1.25.63-1.25.56h-.94s-1,.37-1.18.69a5.18,5.18,0,0,1-1,.87,1.38,1.38,0,0,1-.75,0c-.25-.12-1.19-.62-1.19-.62l-.81-.63a12,12,0,0,0-1.25,1.56l.62,1.82.13,1.25s.43.62.62.68,1.25.57,1.25.57a3.13,3.13,0,0,1,.56,1c.07.37-.43,1-.43,1a3.74,3.74,0,0,1-1.13.25,4.7,4.7,0,0,0-.81.06,1.46,1.46,0,0,0-.81.94c-.25.75.5,1.81.5,1.81h1l.75.75h.43l.38.75.06.56a2.42,2.42,0,0,1-.19.75,4,4,0,0,0-.25.81l1,1.38a1.89,1.89,0,0,1,.32.5c.18.37.37.5.43.81s0,0,0,.69a6.85,6.85,0,0,1-.25,1.56,3.54,3.54,0,0,0,0,.88,12.18,12.18,0,0,1,.07,1.31l.37.75-.12,2.75-.75.87h-.57a1.06,1.06,0,0,0-.81,0,6.18,6.18,0,0,1-2.43,0l-1.13-.68-.81-.5-.94-.69s-1.06-.63-1.25-.69-1-.19-1-.19l-1.38.07-.43.06-.63.56s-.69.63-.94.81-1.12,1.07-1.31,1.07-1.31.3-1.31.3h-1s-.81-.12-.94-.3a5.62,5.62,0,0,0-1.06-.69.47.47,0,0,0-.75-.19,10.52,10.52,0,0,0-1.19,1.18s0-.24-.5.32a4.32,4.32,0,0,1-1.06,1,7.77,7.77,0,0,1-1.19,0l-.69-.87a4.88,4.88,0,0,0-.93-.38h-1.25a5,5,0,0,0-1.5.44,8.77,8.77,0,0,0-1.38.84,6.49,6.49,0,0,1-1.37.78h-2.94l-1,.82a2.83,2.83,0,0,1-1.25,0,2,2,0,0,0-1-.38h-1.88l-.31-.12-.62-.69-.63-.81-.62-1.13-.94-.37-1.19.81-1,1.06-1.75.88-1.25.06-.87-.13-.69-.62v-.38l-.81-.18a5.92,5.92,0,0,0-1.07-.25c-.31,0-1.37-.19-1.37-.19l-.5-.19-.81-.75-1.13-.06h-1.41l-.29-.22-.72-.56-.83-1-.49-.65-.41-.57-.25-.5v-.58l.11-.62.16-.43.38-.35.33-.3.48-.47.63-.11.48-.08.33-.38.25-.37.16-.46.07-.55-.06-.33-.39-.54-.2-.21.13-.55.12-.53.16-.57.18-.51,0-.45,0-.44,0-.66-.1-.44-.21-.52-.44-.44-.36-.36-.41-.63-.16-.61-.12-.61.05-.9.09-.62.15-.68.12-.45.74-.31.57-.38.44-.4.63-.65.46-.45.58-.52.68-.53.65-.55.59-.55L349,212l.67-.55.7-.49.43-.26.66-.49.64-.55.48-.49.76-.72.29-.26.49-.45.6-.63.56-.59.31-.3.41-.43.21-.49.26-.6v-1.34l-.29-.33-.16-.18-.22-.24.06-.61.06-.42.18-.57.12-.4-.19-.38-.18-.37-.26-.54-.12-.3-.45-.76-.48-.58-.4-.48-.24-1.22-.14-.55-.2-.61.08-.19.22-.29.58-.75.36-.48h.84l.53-.19,1.07-.38,1.35-.77.88-.57,1-.54,1.16-.63.77-.34.52-.32.76-.89.56-.53.11-.29-.11-.75v-.21h-.42l-.69,0-.35-.14-.62-.24h-.63l-.74-.08-.65-.24-.48-.18-.68-.23-.55-.38-.19-.22-.32-.35-.4-.44-.2-.21v-1.29h1l.43-.34.55-.43.27-.21h2.25l.11.31.23.67h3.41l.17-.49.27-.79.15-.45.23-.52.29-.37.36-.34.31-.45v-.52l.57.18.4.12.45.44.43.44.46.45.33,0,.57.06.6.07.25.24.45.45.52.51.33.33.61.6h4.42l.08-.34.13-.45.14-.46.06-.42,0-.4-.09-.46-.07-.3-.12-.38-.24-.28-.17-.2,0-.32,0-.29,0-.48,0-.49.07-.29,0-.25v-.37l0-.57v-1.5l.14-.19.2-.25.1-.13v-.75l.13-.3.24-.51.27-.39.22-.32.15-.27.19-.41.11-.23.28-.29.23-.23.36-.36.64-.23.64-.35.47-.28.42-.23.46-.24.46-.22.35-.17.4-.19.35-.26.41-.18.59-.21h1.06l.32-.28.46-.4.29-.25.45-.39.43-.41.23-.25.07-.08v-.25l.21-.31.26-.35.35-.35.43-.2.41-.13.47-.1.25-.07.48-.22h.41l.25.14.31.13.31.22.14.14H393l0-.1h4.31l.11-.18.16-.25.05-.07.1,0,.34.14.56.19.58.12.37.09.63.14.35,0,.52,0,.5.1.47.11.55.19.39.17.51.27.38.33.43.34.38.31.56.49.47.47.43.41.35.29.43.38.47.41.23.21.41.38.26.35.26.36.41.43.53.44.3.23.3.09.67.13h1l.65,0,.36.05.63.06.46.09.63.11.41.07.73.14.47.07.6.08.66.06.28.1.14.09.37.23.45.2.25.12.32.05.47.1.42.11.42.09.31,0,.36-.12.22-.15.07-.1.16-.12.25-.17.3-.17.21-.12.22-.18.15-.16.23-.21.3-.28.19-.13.27-.17.26-.19.35-.24.36-.25.25-.18.12-.1.13.21.12.19.13.22.21.29.27.38.35.42.21.35.25.41.16.29.23.53.11.49v1.28l.11.49.08.27.06.2.42.33.43.4.35.26.63.42.55.38.39.29.19.23.29.31.44.23.47.18.24.29.09.54V180l0,.79.08.15.25.44.25.18.32.2.33.24.43.43.31.35.36.35.2.25.35.35.35.21.32.13.48.22.37.29.14.21-.05.22-.16.37.18.28.12.13.16.28.13.31-.13.24-.16.34v.63l.08.21.17.29.18.17.32.24.14,0,.32-.17.21-.15.35-.25.32-.19.32-.17v-.34l.2-.36.18-.3.46-.63.41-.49.25-.45v-.43l.11-.14.33-.4.3-.43.18-.28.33-.43.19-.09.32.2.24.36.38.21.23.13.14.07v.55h.36l.43.07.66.16.45.19.35.18.15.07.27-.21.32-.25.41-.32.53-.15.66.06.59-.18.21-.06.54.27.62.56a3.77,3.77,0,0,1,.1.72,5.39,5.39,0,0,0,.09.84l.5.44.53-.31.6-.66.28-.53.65-.28.63,0,.75.35.41.75-.57.9-.18.66-.13.62-.19.72v.63l-.34.78Z"/>
    </g>
    <g class="region" id="Kherson">
        <path class="cls-1"
              d="M381,247.25h1l2,.63.75-.63h.75l1.25-.87,1,1.5.63,1.12-.75,1.88.75,1.62v2.25l1.62,1.63v2.5l.63.87.62,1,1.13.88,2,.87s1.62,1.13,2.12,1.38,2.25,1.62,2.25,1.62l-1.25,1.63-.5,1.37-.75,1h-.5l-.62,1.63-1.5,1.62s-.5,1.63,0,1.63h1.5s-.38-1.25.75,0a8.16,8.16,0,0,0,1.75,1.6l-1,1.27h-.38l.63,1.25,1.87.75h.75l1.75,1.45H402l1.5,1.05,1.25.75,1.25.75,1.13,1v4.88l.62,1.12v1.63h-5.12s-.13-.25-.88,1.25-1.12,2.37-1.12,2.37l-.38.75h-2a5.88,5.88,0,0,0-1.5,0c-.5.13-.87-.5-1.75,0s-1.25.63-1.62.88-.63-.38-1,0-1.38.06-1.38.06l-1.12.12h-1.25l-1.5-.68-.63-.5s-1-.25-1.37-.38-2.25-1-2.25-1l-.75-1.12-.5-.63s.12,0-.63.13a16.26,16.26,0,0,0-1.62.37l-.88,2-.75,2.63H376s-1.12-.63-1.12-1-2.25-2.13-2.25-2.13a10.45,10.45,0,0,0-1.5-.5,3.56,3.56,0,0,0-2,0l-1.13.25s-1.75,1.75-2.37,2.25l-2.5,2-2,2.25-2,2s-.63,1.25-1.13,0a10.78,10.78,0,0,0-1.75-2.62l-1.62-1-1.38-.88v-1.62l-.62-1.13-.75.25s-1.13.75-1.63,1.13-2,1.62-2,1.62l-3,1.38h-.87l-3,.5-1,.5-1.88-.63a9.25,9.25,0,0,1-1.62-.12,5.37,5.37,0,0,0-2.63.62c-.5.38-2.37,2.86-2.87,2.56a5.11,5.11,0,0,0-3,0,6.2,6.2,0,0,1-2.38,0l-2.12-1.58-1.25-1.12v-.63l-2-1.37-1.25-.88a4.86,4.86,0,0,0-1.75-.75,36.28,36.28,0,0,1-3.75-1.12l-2.63-1.5-.62-.75,1.62-1.63,1.38-.75,1.12-1.37.25-.88s-.25-2.12-.87-2.62a2.65,2.65,0,0,0-2-.75,31,31,0,0,1-3.25-.38,16.47,16.47,0,0,0-3.38-.12,3.08,3.08,0,0,1-1.5-.13c-.5-.12-1-.87-1-.87l1.42-1.75,1.62.25,2.88.87,2.62.5,3.13,1,2.75.13,2.75.12,2.5.13,1.25.12a5.71,5.71,0,0,1,1-.5,19.7,19.7,0,0,0,2-1.12l1.5-1.75a.92.92,0,0,0-.75-.5c-.63-.13-2.13-.63-2.13-.63l-1.62-.8H318l-1.62-.57-1.63-.75-.12-1.38-.38-2,.13-.81-.05-.59.34-.67.78-.06.87.1,1,.09.32,0,.75-.49.53-.34.43-.53.27-.4.37-.56.36-.55.37-.55.55.13.92.3.46.2.82.33.42,0,.24-.32.45-.61.39-.53.33-.45h2.17l1.07-.17.51-.08.17-.34.95-.37.59-.18.74-.15.48-.09.66-.12.75.33.55.44.61.52,1,.55.9.22.67.07.37,0,.62-.29.64-.3.39-.25.28-.36.4-.55.33-.62.33-.62.09-.17-.4-.2-.43-.22-.57-.19-.43-.56.75-.33.45.3.8.11.6-.3.63-.29.32-.27.43-.65.23-.58.19-.75.21-.76v-.47l.69-.07.83-.23.32-.47.14-.53-.1-.21-.49-.33-.65-.51-.44-.37-.59-.62-.87-.51-.65-.39-.69-.28-.45-.16-.42-.58-.12-.69-.05-.23.59-.58.52-.34.53-.34.38-.11,1.09-.21,1.28-.46.7-.21.37-.4.43-.45.49-.6.29-.7-.05-.79-.12-.64-.11-.56-.14-.69v-1.07l-.06-1,0-1.36-.29-.21-.49-.37-.41-.34-.28-.3-.18-.34-.46-.85-.22-.67.65.18h.59l.34-.09h.42l.25-.83L346,241l.13-.54-.08-.44-.28-.45-.31-.61-.33-.75-.17-.34.06-.56,0-.27-.22-.39-.18-.31-.18-.32-.16-.12h1.48l.68,0,.38,0,.2.19.33.3.28.26.36.13.37.1.58.09.34,0,.47,0,.36.1.6.16.38.08.29.07v.38l.14.13.27.24.28.25.27,0,.45.07h.36l.67,0h.37l.38-.19.33-.17.24-.12.31-.15.32-.16.26-.19.39-.42.29-.3.17-.18.21-.17.25-.16.25-.18.2-.14.24-.16.1-.06.26.1.38.15.3.12.13.25.15.27.18.31.16.3.2.26.32.41.35.4.26.29.12.14.14.05.4.07h1.65l.52.12.34.17.26.17h.36l.35,0,.28,0,.31-.17.25-.2.27-.22.31-.25h2.94l.48-.23.53-.29.25-.17.69-.49.46-.26.68-.33.58-.18.58-.11h.64l.69,0,.57.22.76.75.21.26.42.42.46.46.83,1,.21.41.41,1,.21,1.13.42,1.21.5,1.16.29,1.21.29,1Z"/>
    </g>
    <g class="region" id="Zaporozhye">
        <path class="cls-1"
              d="M463.75,260.75l.83-.42v-.5l-.83-1.58.42-.83,1.08-.75.83-.59,1-1.08-.41-.67-.17-.5.08-.58-1.16-.92h-.75l-.92-.41-.42-.92-.58-.5.42-.5-.42-.33v-.34l-1.58-.66v-.5l-.59-.34-.5-.5-.5-.41-.41-.59v-.66l.41-.75.25-.67.09-1.5-.75-.58,1.5-1h2.91l.59-.34.41-.75v-.62l.34-.88h2.16l.5-.83.34-1.17.41-1.08v-1.33a.59.59,0,0,0-.66-.67,8.81,8.81,0,0,1-1.5,0c-.25-.08-.84.58-1.34,0a3.35,3.35,0,0,0-1.08-.83l-.33-.5s.25.16-.17-.34-.25-.5-.67-.91a11,11,0,0,0-1.25-1l-1.16-.84h-1l-.34.75a.92.92,0,0,1-.75.5,1.63,1.63,0,0,1-.91-.33,1.38,1.38,0,0,1-.59-.33,5.49,5.49,0,0,0-.83-.59s-.33-.5-.75-1.08-.75-1-.75-1l-.83-1.08v-1.09l-.84-1s-.58-.5-.91-.75-1.67-1.66-1.67-1.66V221l-.81-.31-.81-.56-.38-.5v-1.44l-.69-.63-.5-.5-.14-.68L446,217l-.72.67-.75.87-.62.56-.81-.34-.84-.14-.55.27-.86.59-.54.52-.59.54h-.61l-.77-.11-.82-.69-.61-.71-.19-.25-.81-.25h-.38l-.41.51-.46.43-.63.44-.87.06-.19-.19-.31-.31v-1.25l.52-.38.5-.46-.06-.49-.52-.86-.08-.39-.1-.27-.26-.28-.7-.34-.18-.16-.26-.87v-.56l.05-.18v-.27l-.11-.18-.17-.23-.06-.13-.11-.38,0-.26-.16-.31-.22-.13-.5.36-.33.05-.2,0-.41-.19v-.87l-.07-.43-.1-.31-.14-.26-.11-.25v-.32l-.74-.12-.37-.05H427l-.29.27-.27.16-.59.18-.53.06-.23.17-.27.38-.31.17-.29,0-.4-.14-.48-.21-.34-.15-.39-.39-.36-.31-.4-.16-.47-.21-.7-.16-.46-.09-.75-.05-.47.09-.53.34-.58.3-.67.39-.75.41-.56.34-.56.36-.37.23-.57.29-.27-.21-.48-.48-.41-.26-.44-.27-.34-.22h-.81l-.65.26-.48.24-.49-.4-.44-.23-.74-.31-.88-.28-.62-.05-.88-.08H406l-.55.08-.69.19-.56.28-.66.32-.7.31-.34.16h-.94l-.34.14-.53.27-.44.43-.39.36-.31.24-.35.15h-.45l-.26-.11-.39-.2-.34-.19-.32-.16-.28-.22-.36-.28-.17-.13-.37.38-.33.42-.19.26-.23.31-.13.19.16.48.1.29.19.54.19.72.06.64.13.52.17.21.37.35.36.15.43.2.46.22.22.3.24.41.07.56-.24.5-.58.36-.71.12-.59,0-.43.14-.38.37-.22.46,0,.49.08.41.12.29.15.31.19.31h1l.29.29.36.36.1.1.47.07.16.33.19.48,0,.6-.11.45-.15.34-.16.6.16.23.53.71.31.44.32.5.31.51.14.54,0,.32,0,.54-.12.69-.11.46,0,.62.07,1,0,.56.28.57,0,1v.41l0,.56v.31l0,.69-.38.44-.37.43h-.57l-.12,0-.45,0-.74.16-.62,0h-.57l-.42,0-.66-.28-.38-.22-.41-.25-.63-.39-.44-.3-.68-.5-.5-.29-.56-.31-.81-.21-.94,0-.82,0-.29,0-.62.45-.49.44L387,235l-.44.37-.33.3-.22.19-.46.32-.4.07-.6.15-.78.08h-.53l-.44-.09-.5-.21-.19-.25-.44-.2-.43-.24-.28-.29-.32,0-.49.37-.5.5-.45.35-.17.12-.23.24-.29.31-.32.33-.25.24-.42.14h-.75l-.13.08.21.21.28.28.3.3.34.43.49.61.29.6.26.6.18.75.1.55.14.4.21.62.44,1.06.34,1.17.37,1.29.71.54,1.58.26,1.17.37.75-.63h.75l.83-.58.42-.29.47.7.79,1.26.37.66-.5,1.25-.25.63.43.93.32,1.52v1.42l.56.56.62.63.44.73v2.21l.35.48.62.94.65.74,1.32.83.93.41,1.12.64,1,.67,1.28.81,1,.79.41.31-.6.78-.94,1.63-.21.59-.53.71-.22.29h-.5l-.16.42-.27.71-.19.5-.47.5-.55.6-.48.52-.16.64-.06.48.22.51h1.2l.24-.26.07-.29.3.12.23.21.54.58.44.44.44.39.54.41-.29.35-.39.5-.32.42-.28.2.26.52.19.38.08.15.46.19.34.13.54.22.61.21h.67l.34.28.43.36.37.31.23.19.38.31H402l.27.19.24.17.47.33.44.3.55.34.5.3.39.23.57.35.4.24.32.24.52.45.28.25.18.16V289l.22.52.21.39.19.33v.28l.28-.28.6-.28.43-.88.35-.21.56-.75.22-.35.22-.5.59-.84a2.92,2.92,0,0,0,0-.69c-.06-.16-.25-.81-.25-.81l-.41-.78a6.21,6.21,0,0,1-.37-.66,4.74,4.74,0,0,1-.41-.81c0-.16.19-1.06.19-1.06l.34-.5a5.37,5.37,0,0,1,.88-.13,5.6,5.6,0,0,1,.75.53c.34.25,1,.81,1.09.91a2.35,2.35,0,0,1,.47.65,2.22,2.22,0,0,1-.09.85,5.84,5.84,0,0,0-.13,1.12l.47.41.25.37.44.38.15.72.32.56.62.22.94-.13.62-.46.66-.66-.06-.47v-.5l.22-.53.37-.56.31-.35.5-.47a3.83,3.83,0,0,1,.6-.5c.12,0,1.28-.78,1.28-.78l.84-.5.6-.4,1.12-.75.22-.19.63-.41.59-.56.47-.62.34-.5.56-.63.32-.37a5.13,5.13,0,0,1,.47-.47l.37-.28.17-.57,1.25-1,1.5-1.17.58-.91,1.58-.59,1.09-.16,1.41-.42,1.42-.5,2-.25.92.25,1.41.42,1.59.91,1.33.84.33-.75,1-1.09,1.17-1.33,1.17-1.25.66-.83.84-.84,1.41-.91,1.75-.34s1.67-.33,2.09-.5,2.41-.66,2.41-.66l.67,1.16,2,1.09.5-.5.67-.92,1.5-1.67,1-1.5.75-1.41Z"/>
    </g>
    <g class="region" id="Lugansk">
        <path class="cls-1"
              d="M542.42,206.17l-.67,1.08v.88l-1.08,1h-5.34l-1.16.75h-2.92l-1.75-.75-1.17-1-1.75,1-1.25.75-1.58.92-1.58-.67-1.25-.41-1.34-1.21.42-1.29-.42-1.42V204.5l-1.58-.92a5.92,5.92,0,0,1-1.08.34c-.5.08.83.16-.84.08a9.38,9.38,0,0,0-2.08-.08,5.14,5.14,0,0,1-1.5-.34l-.67-.91v-3.34H508L506.5,198l-.67-1-.5-.83-.5-1-.41-1.25v-.67h-1.09l-.58.67-.67.33-1.08-.33-.92-.67h-1.16v-1.5l1.33-.92.67-1.66a.86.86,0,0,1-.59-.61,1.86,1.86,0,0,0-.83-1.23,10.27,10.27,0,0,0-2.08-.5l-1.59-.83-1.66-1.42,1.5-1-1.5-1.08-.42-1.08V173.5a2.53,2.53,0,0,0,0-1.17c-.17-.41-.5-1.58-.5-1.58s-.5-.92-.67-1.33a9.64,9.64,0,0,1-.41-1.09,5.22,5.22,0,0,0-1-1.16h-1.09s-1.66-.5-1.91-.59-1.82-.33-1.82-.33l-.48-.5v-.58l-.53-.26-.46-.66.15-.36.09-.21.16-.38.1-.24.15-.24h.34l0-.4,0-.69,0-.66v-1.35l-.08-.7-.37-.73-.2-.43-.38-.62-.53-.67-.49-.58-.54-.45-.79-.75-.61-.66-.4-.45-.6-.69-.32-.35V152l-.32-.47-.43-.56-.31-.54-.15-.46,0-.56,0-.61,0-.39-.26-.3-.34-.41-.21-.29,0-.66,0-.45,0-.27-.06-.64.25-.47.42-.38.39-.38v-1.13l.42-.62.26-.38.34-.49.05-.36-.12-.21-.22-.43-.11-.19.08-.42.05-.27-.21-.47-.18-.47-.16-.37-.2-.44.28-.55.28-.7.13-.6.18-.62.06-.16.22-.18.14-.16.14-.34,0-.34,0-.35.06-.69-.41-.44-.33-.41-.35-.49-.28-.46-.19-.32.33-.47.17-.22.62-.5.59-.44v-1.12l-.27-.47-.17-.29-.15-.24.61-.32.44-.5.14-.5-.19-.39-.26-.54-.24-.5,1-.21h.54l.67-.42a5,5,0,0,0,.58-.25l.79-.5.5-.42.13-.5.21-.66,0-.67a4,4,0,0,0,0-.75,8.5,8.5,0,0,0-.42-.75v-.38l-.08-.87.17-.46.75-.58h.7l1.17.21.5.62.29.75.5.79.5.79.63,0,.91.16a2.16,2.16,0,0,0,.67.09c.42,0,1.29.12,1.29.12s.42.13.46.33a4.18,4.18,0,0,0,.71.88,1.91,1.91,0,0,0,.62-.21l.67-.5,0-.46H496l.42,0,.79-.21.92.17a3.65,3.65,0,0,1,.62.29,5.75,5.75,0,0,1,.59,1.08l.08,1,.46-.3.33.17.54.92.63.58.66.29.92-.12a8.25,8.25,0,0,0,1-.21l1,.33.79.63.34.75.41.21,1.05,0,1-.34.58-.16.54-.29.42-.38.58-.71s.38-.41.38-.54a3.71,3.71,0,0,1,.41-.71l.75-.25.54,0,.75.5s.34.5.59,1L515,126l.87,1.08a3.41,3.41,0,0,0,1,.88c.34.12,1,.42,1,.42l.67-.17.58-.33,1.5-.38.67-.62,1.12-.63a3.22,3.22,0,0,1,.54.67,4.55,4.55,0,0,0,.59.75l.79.42s1.87.83,2.17.87.12,1,.12,1l.08.71.42.71.58.62s.38.3.67.5a6.4,6.4,0,0,0,1.88.38l1,.12,1.12.21.21.67.42.08,1-.29s.71-.12.87-.17a8.24,8.24,0,0,0,1-.54l.92-.83.58-.46.46-.5.58-.42.84-.29a12.7,12.7,0,0,1,1.41.29l.67.5a4.6,4.6,0,0,1-.63.88,12,12,0,0,0-1,1.37l-.37.71.12,1.13s.55.62.71.87a6.67,6.67,0,0,1,.59.84,2.68,2.68,0,0,0,.29.79c.21.37.58.83.71,1a7.58,7.58,0,0,1,.41.71c0,.12.46.54.63.87s.33.42.46.75a10.52,10.52,0,0,1,.41,1.21,3.16,3.16,0,0,1,.21,1,5.23,5.23,0,0,1,0,1.13c-.08.25-.21.5-.37.91s-.38.5-.59.84-.41.37-.54.71a3.37,3.37,0,0,1-.46.75,6,6,0,0,0-.46.66c0,.13-.33.92-.33.92l-.75.33-.58.67-.46.79a1.07,1.07,0,0,0-.33.5c0,.25-.3,1-.34,1.08a9,9,0,0,1-.5,1c-.21.38-.25.75-.54.84a1.55,1.55,0,0,1-.87.08,4.5,4.5,0,0,0-.8-.08.36.36,0,0,1-.16.25,1.88,1.88,0,0,1-.67.29,7.67,7.67,0,0,1-1.21.17l-.54.12a1.39,1.39,0,0,0-.5.46c-.17.29-.37.21-.58.83a2.86,2.86,0,0,0,0,1.46l.46.46a5.34,5.34,0,0,0,.54.71c.12.08.75.66,1.12,1a11.91,11.91,0,0,0,1.46.91l1,.17,1,.13a9.05,9.05,0,0,0,1,.37c.13,0,1.38.29,1.5.29a4.91,4.91,0,0,0,.84.09c.2,0,1.5-.84,1.5-.84a6.26,6.26,0,0,1,1.54.71c.08.21-.09.75,0,1.08s.5.92,0,1.25a3.19,3.19,0,0,0-.81,1,2.11,2.11,0,0,1-1,.17c-.59,0-1-.33-1.25-.33a12.29,12.29,0,0,0-1.3.2s-.7-.16-.83-.16a6.87,6.87,0,0,1-1-.09c-.16,0-.79-.12-.79-.12a6,6,0,0,1-.71.62c-.21.13-.79.55-.79.55s-.29.33-.37.45a12.59,12.59,0,0,1-.75,1.09,6,6,0,0,0-.88,1.46c0,.12-.21,1.16-.21,1.16l.5.42-.29.92-.17.75,0,.29-.12.75,0,.71.54.58.63.71.87.58s.42,0,1,0,2.21.12,2.46.12a14,14,0,0,1,1.91.88,5.68,5.68,0,0,1-.25,1.29,3.93,3.93,0,0,0-.66,1.38,1.89,1.89,0,0,0,.37,1.58c.25.29.67.5,1.17,1s.83.5.87,1a3.77,3.77,0,0,1,.09,1.16,7.44,7.44,0,0,1-1,1.38c-.21.33-.63.62-.63.75a1.8,1.8,0,0,0,0,1.12c.21.5.25.5.75.88s1.79.12,1.79.12l1.38-.41s.83.87.46,1.25,0,.91-.09,1a12.11,12.11,0,0,0-1.16,1,2.92,2.92,0,0,0-.54.55c-.34.41-.59.62-.59.79s0,.83,0,.83l-.5.85h-.17l-.5.94-.12.46.29,1.25.58.79a1.37,1.37,0,0,1-.29.59c-.21.2-.71.66-1,.87s-.79.58-.79.58a4.19,4.19,0,0,0-.12.92,7,7,0,0,0,.5,1,1.18,1.18,0,0,1,.66.42,15.48,15.48,0,0,1,.8,1.41v.75a4.94,4.94,0,0,0,0,.88A3.22,3.22,0,0,0,542.42,206.17Z"/>
    </g>
    <g class="region" id="Donetsk">
        <path class="cls-1"
              d="M517.83,210.75h-3.41l-1.25.92-.92,1.58v1.67l.5,1.16.17.84-.67,1.08-.33.58-1.42.75-1.08.42-.84.33-1,.75h-.91l-1.67.42-1.08.33-.67,1.17h-1.17s-.5-.33-.75,0a9.92,9.92,0,0,1-.66.75,1.51,1.51,0,0,0-.59.75,6,6,0,0,1-.83,1.33s-.5.25-.5.67a8.4,8.4,0,0,0,0,1.42c.08.33-.16.75,0,1.08s.23,1.17,0,1.42-.76.5-.35,1.16a12,12,0,0,0,1.34,1.59l-.17.66-.58.67a5.59,5.59,0,0,1-.75,1.17l-.34.83v.92l1.42.66,1.25,1.09-.42,1.33a9.83,9.83,0,0,1-.66.75l-.34.33s.17-.16-.25.67-.66.42-.5,1.25.09,1.08.42,1.5l.33.42a9.65,9.65,0,0,1-.5,1.83,2.21,2.21,0,0,1-.75,1.08l-1.33-1.16a1.25,1.25,0,0,0-1.25.08,4.49,4.49,0,0,1-1.92.42h-1.75l-1.58-.09h-1.58l-1,1.5-.59.5-1.25.34h-2.16l-.75-.34v-.83l-1.17-.5-1.33-.08a11.14,11.14,0,0,1-1.09,1.41,1.92,1.92,0,0,0-.51.92,4.66,4.66,0,0,1-.49,1,8.76,8.76,0,0,0-.5.92c-.33.66-1,.75-1,1.33v1.42l-.5.58-.5.75-.58,1.08h-1.25l-.42-.58-1.16-1-1.42-.08a.73.73,0,0,0-.67.25c-.33.33-1.58,1.08-1.74,1.41a7.41,7.41,0,0,1-1.17,1.17l-1.09,1-1.08.42-.42-.09-.41-.79-.34-1,.34-.66.63-.44.82-.57.86-.76.6-.65-.41-.67-.17-.5.08-.58-.57-.45-.59-.47h-.75l-.92-.41-.31-.69-.36-.45-.5-.2.59-.58-.42-.33v-.34l-.34-.14-.6-.25-.64-.27v-.5l-.42-.24-.67-.6-.18-.15-.57-.62-.33-.64.27-.43.31-.57.25-.67,0-.63.05-.87-.75-.58.43-.29.5-.34.4-.26.17-.11h2.62l.42-.08.59-.5.28-.51v-.25l.11-.66.23-.59h2.16l.22-.36.28-.47.19-.66.06-.21.19-.57.32-.62v-2.08l-.43-.08-.45,0-.54,0-.5,0-.69.09-.31.27-.29-.2-.3-.2-.55-.51-.31-.21-.44-.44-.28-.51-.37-.55-.46-.51-.45-.38-.5-.38-.38-.26-.41-.3-.26-.18-.25-.19h-1l-.34.75-.75.5-.52-.11-.39-.22-.59-.33-.59-.44-.24-.15-.38-.55-.27-.39-.59-.8-.45-.59-.64-.83v-1.09l-.61-.73-.5-.5-.64-.52-.33-.29-.43-.43-.42-.42-.49-.52V221l-.46-.18-.57-.28-.18-.13-.41-.28-.25-.33-.13-.42v-1.19l-.49-.44-.51-.5-.19-.19-.14-.68.45-.51.42-.49L448,215l.33-.29.57-.44,0-.16-.18-.44-.25-.25-.29-.22-.45-.43-.21-.44-.27-.53-.49-.6-.09-.74,0-.76v-.46l.25-.61.21-.48.26-.32.42-.11.63-.38h.27l.73-.19.27-.09.46-.28.45.52.49.37.47.42.31.33.63.49.92.49.39.08,1-.12.56-.36.45-.41.33-.31v-1.51l-.14-.68-.17-.37-.23-.4-.36-.53-.24-.55,0-.3v-.29l.25-.17.31-.19.43-.41.21-.42v-3.12l-.38-.63-.32-.42-.34-.45-.36-.26-.48-.24-.21-.18-.47-.4-.29-.33-.4-.66V194.6l-.21-.73-.23-.81.18-.43.26-.63v-1.37l.27-.6.16-1,.19-.72.17-.78.27-.7.44-.7-.24-.43-.17-.32-.75-.35h-.89l-.39.25-.28.53-.34.37-.79.6-.28-.25-.27-.48,0-.55-.05-.47-.05-.25-.27-.24-.35-.32-.15-.08-.39-.19.4-.3.13-.54-.11-.69-.07-.55,0-.24-.27-.3-.48-.52.29-.45.15-.67-.25-.69-.4-.62-.22-.43-.13-.39-.38-.62.61-.5.39-.31.32.11.56.2.47.1.37.21.35.19.47-.11.42-.16.34-.21.33-.27.21-.21.37-.29.29-.13.5-.06h.89l.05-.06.26.26.29.27.33.28.37.22.25.16.27-.19.37-.24.38-.36.19-.19.36-.35.24-.22.27-.24.27-.24.19-.23.2-.28.25-.18.25-.19.33-.25.31-.32.27-.29.18-.2.32-.33.35-.33.27-.27.39-.39.34-.37.47-.55.49-.6.26-.44.27-.51.45-.74.23-.21.45-.39.25-.23.13-.11v-2l.07-.11.32-.5.38-.6.19-.27.38-.43.35-.4.3-.22.47-.33.42-.14h.56l.12.31.15.21.19.26.29.41v.68l.42.12.39.07h.18l.37-.05.56-.09.59-.12.3-.17.38-.18.62-.38.44-.25.39.3.36.29.32.27.12.12-.19.27-.38.19-.2.62-.11.57.43.47.27.28.51.23.59.19.33.08.45.39.31.37.37.38.24.42.55.36a4.31,4.31,0,0,0,.46.13l.69.12.61.12.33.22.59,0,.46-.05.44,0,.43,0,.39-.23.3-.26.69-.51h.62l.17-.22.34-.44.38-.34.55-.12.39-.09.51-.16.34-.11.11-.33-.28-.2h.62l.48.08,1,.19.68.21,1,.3.52.08h.72l.63.51.39.48.25.65.49,1.11.47,1,.37,1.2.14.43v.57l-.06,1v6.85l.08.7.24.63.18.32.46.33.66.48.3.21-.41.28-.72.47-.37.25.44.38.33.28.31.26.58.5.63.33.6.31.36.19.67.12.81.17a3.43,3.43,0,0,1,.43.13,3.64,3.64,0,0,1,.46.3l.41.59.13.42a4.53,4.53,0,0,1,.25.42,2.11,2.11,0,0,1,.23.15l0,.24-.27.68-.22.55-.41.45-.53.37-.48.33v1.5h1.16l.28.2.34.25.54.29.47.14.37.12.16-.08.51-.25.34-.39.24-.28h1.09v.67l.27.83.33.79.42.8.52.85.54.81.73.64.77.69h3.83v3.34l.21.28.14.19.46.49.37.12.42.11.57.06h.76l.52,0,.8.05.67,0,.37-.15.71-.23h.26l.5.29.31.18.43.24.25.15v1.25l.14.47.12.41.13.44-.09.48-.11.32-.19.59-.2.6-.1.53-.56.41-.34.47Z"/>
    </g>
    <g class="region" id="Crimea">
        <path class="cls-1"
              d="M379.67,374.5H383l1.83-2.33h1.5l1-2,2.5-2.34.84-2.66v-.84L392.5,362l1.83-1.17,2.84-1.83,2.66-1,1.67-1.17H403l1.67-.83,3.08-1h3.42l1.33,1.33h1v-3l.67-.66,1.16-1.17,1.17-1.83,1-.84h3v-4l2-.66V343l2.37-.62V341h5l2,.83,1.34,1.5L435,345l1.83,1.33,1-.5,1.5-.83,2-.5v-1.33l1.5.66h.84l3.16.5,1.67.17L450,343l1.5-.67,2.17-.16,1.5-1.17-1.67-1.33h-.33V337l.16-1.5,1-1.83.84-2.17.66-1,1-1.5h4v-2.17l-1.5-1.5s-.33.5-.83,0a5.53,5.53,0,0,0-2.33-.66h-2.34l-2.66-1H445l-2.67,1.5L441.17,327l-1.5,1.83H437.5l-1-.66-1.17-.67-.66-.83H433l-1.33,1.83-1.34,1.67-2.5.83-2.5,1.33-2.16,1.17-2.92,1.17-2.92-.67-2.66-1.17-2.34-.83-2.83-.83L407.75,329l.92-1.83,1.66-2.84s-.5-1.66-.66-2.16a11.31,11.31,0,0,0-1.92-2l-2.42-2-2.83-1.5-2.67-.84.42-2.83,1.25-2.25,3.25-2.25V305l-1.25-4.25a21.27,21.27,0,0,1-1.5-3.25,5.05,5.05,0,0,0-1.37-2l-.38.75h-2l-.92-.05-1,0-.84-.15-.85.37-.63.33-.65.36-.75-.3-.88.48-1.33-.06-.88-.12-1.14.08-1-.46-.7-.46-.94-.36-1.24-.43-.86-.39-.9-.53-.46-.69-.82-.85-.48.09-.69.13-.64.16-.29.08-.17.39-.29.65-.13.29-.12.27-.24.64-.17.59-.15.54-.29,1-.53.25H376l-.23-.15-.87-.77-.46-.65-.6-.56-.57-.48-.79-.58-.92-.33-1.1-.24-1.08.08-1.11.24-.58.37-.72.7-.64.62-1,.86-1.26,1-.78.63V302l.85,2v1.29a4,4,0,0,1,.75.75c.25.38.87,1.25.87,1.25l1.38.25.87,1.25-.5,1.25s-.25,1.5-.75,1.5-2.87.13-2.87.13l-1.38-.13-1.5,1.88-2.5-.13s-1.5-.37-1.87,0-1.28,1.63-1.28,1.63,1,1.37,0,1.37-1.85-.25-2.47-.25-1-.25-1.75-.25a2.62,2.62,0,0,0-1.5.75l-1.13,2a14.94,14.94,0,0,0-1.12,1.25,24.41,24.41,0,0,1-2.75,2.13l-1.88.25-.62.12-.88,1.38V326l-2.5.63s-1-.38-1.5-.13a15.36,15.36,0,0,0-1.62,1.13l-.75.87-1.5.63-.88.37-1.37,2a2.64,2.64,0,0,1,0,1.5,8,8,0,0,0,0,2.5l-.12,1.13,1.49.5,2.88.12,2.25-1,.75-1.75,1.37-.73,1.13.86,1.12.25,1.13.5,1.12.5,1.63,1.37.62,1.25,2.25,1.88,1.88,1.25,1.5.37,2.12.75h1.1l1-.37,1.62-.63,1.38.25,1,.5a7.69,7.69,0,0,0,1.12.63c.38.12,2.13,1.12,2.13,1.12L365,345.5l1.38,2.25.37,1.88.13,2v2.25a4.17,4.17,0,0,1-.38,1.25c-.25.37-1.25,2.5-1.25,2.5l-.37,1.37v2l.25.88.5,1.37s-.25,1.38-.25,1.75-.75,1-1.13,1.25-.37.5-1,.75-.75.75-1.5.75-1.37.25-1.37.63S360,370,360,370.5a6.33,6.33,0,0,0,1,1.88l2.5.62,2.38.13,1.87.12a3.09,3.09,0,0,1,.5.75c.25.5.63,1.38.63,1.38l1.12,1h6.13a10.07,10.07,0,0,1,2,0C378.5,376.5,379.67,374.5,379.67,374.5Z"/>
    </g>
</svg>
